<svg width="226" height="25" viewBox="0 0 226 25" fill="none" xmlns="http://www.w3.org/2000/svg">
<g id="Logo">
<g id="Group">
<path id="Vector" d="M45.1252 0.76047C45.1408 0.598809 45.2084 0.463223 45.3176 0.358926C45.4267 0.254629 45.5671 0.197266 45.7386 0.197266H48.92C49.2163 0.197266 49.4138 0.358926 49.5074 0.682247L54.0039 13.2553C54.7576 11.1432 55.5166 9.04687 56.2755 6.97136C57.0345 4.89585 57.7882 2.79948 58.5368 0.687462C58.6563 0.364141 58.8487 0.20248 59.1242 0.20248H62.3211C62.4926 0.20248 62.6278 0.259844 62.737 0.369356C62.8409 0.478868 62.8981 0.614454 62.9085 0.765685C63.2204 3.7538 63.5427 6.73148 63.865 9.69351C64.1873 12.6556 64.5096 15.628 64.8319 18.6109V18.6474C64.8319 18.9968 64.6447 19.1689 64.2705 19.1689H61.8013C61.4166 19.1689 61.2191 18.9812 61.2035 18.6057L59.9039 6.51767L55.6621 18.2719C55.6205 18.3919 55.553 18.5014 55.4594 18.6057C55.3658 18.71 55.267 18.7569 55.1683 18.7569H52.8758C52.7667 18.7569 52.6627 18.71 52.5691 18.6109C52.4756 18.5118 52.408 18.4023 52.3664 18.2719C51.6698 16.3059 50.9681 14.3504 50.2663 12.4052C49.5593 10.4653 48.8524 8.50453 48.1402 6.5281L46.8407 18.6005C46.8407 18.976 46.6431 19.1637 46.2532 19.1637H43.7841C43.4098 19.1637 43.2227 18.976 43.2227 18.6005L45.1252 0.76047Z" fill="#161616"/>
<path id="Vector_2" d="M84.0182 18.4182C84.0182 18.5694 83.987 18.6998 83.9246 18.7936C83.8623 18.8875 83.7791 18.9657 83.6751 19.0231C83.5712 19.0804 83.4568 19.1169 83.3268 19.1378C83.1969 19.1587 83.0565 19.1691 82.911 19.1691H81.3203C81.05 19.1691 80.8577 19.0961 80.7537 18.9501C80.6497 18.8041 80.5666 18.6215 80.5198 18.4025L80.4418 17.3178C80.1455 17.6151 79.818 17.8967 79.4541 18.1522C79.0955 18.4129 78.7056 18.6372 78.2897 18.8301C77.8739 19.0231 77.432 19.1691 76.9642 19.2786C76.4963 19.3829 76.0181 19.4403 75.5242 19.4403C74.7601 19.4403 74.0219 19.3412 73.315 19.1378C72.608 18.9396 71.9426 18.658 71.324 18.293C70.7054 17.9332 70.144 17.4951 69.6346 16.9841C69.1304 16.473 68.6937 15.9046 68.335 15.284C67.9764 14.6635 67.6956 13.996 67.4929 13.2763C67.2902 12.5567 67.1914 11.8161 67.1914 11.0391C67.1914 10.2621 67.2902 9.5164 67.4929 8.80196C67.6956 8.08753 67.9712 7.42003 68.335 6.79425C68.6937 6.17368 69.1304 5.61047 69.6346 5.09942C70.1388 4.59358 70.7002 4.16074 71.324 3.79571C71.9426 3.43588 72.608 3.15428 73.315 2.9509C74.0219 2.75273 74.7601 2.64844 75.5242 2.64844C76.0701 2.64844 76.5847 2.7058 77.0785 2.82053C77.5724 2.93525 78.0298 3.09691 78.4613 3.30551C78.8875 3.5141 79.2878 3.76442 79.6517 4.06166C80.0155 4.35891 80.3482 4.67702 80.6445 5.02641L80.8213 3.66012C80.8629 3.50889 80.9045 3.37852 80.9408 3.28465C80.9772 3.18557 81.024 3.10734 81.0812 3.04998C81.1384 2.99262 81.2059 2.9509 81.2891 2.93004C81.3723 2.90918 81.4815 2.89875 81.6062 2.89875H82.8798C83.0149 2.89875 83.1501 2.90918 83.2853 2.93525C83.4204 2.96133 83.5452 3.00305 83.6543 3.0552C83.7635 3.11256 83.8519 3.18557 83.9142 3.28465C83.9766 3.38373 84.0078 3.50367 84.0078 3.64969V18.4077L84.0182 18.4182ZM70.773 11.0444C70.773 11.7275 70.8926 12.3689 71.1317 12.9791C71.3708 13.5892 71.6983 14.1211 72.1246 14.58C72.5508 15.0389 73.0499 15.404 73.6217 15.6699C74.1935 15.9359 74.8225 16.0715 75.4982 16.0715C76.174 16.0715 76.829 15.9359 77.4268 15.6699C78.0246 15.404 78.5444 15.0389 78.9863 14.58C79.4281 14.1211 79.7764 13.584 80.0311 12.9791C80.2859 12.3689 80.4106 11.7223 80.4106 11.0444C80.4106 10.3664 80.2807 9.73021 80.0311 9.12007C79.7764 8.50993 79.4281 7.97802 78.9863 7.5139C78.5444 7.05499 78.0246 6.68995 77.4268 6.41356C76.829 6.14239 76.1844 6.0068 75.4982 6.0068C74.8121 6.0068 74.1935 6.14239 73.6217 6.41356C73.0499 6.68473 72.5508 7.04977 72.1246 7.5139C71.6983 7.9728 71.3708 8.50993 71.1317 9.12007C70.8926 9.73021 70.773 10.3716 70.773 11.0444Z" fill="#161616"/>
<path id="Vector_3" d="M93.1628 19.1698C92.4922 19.1594 91.8632 19.0603 91.2706 18.8621C90.678 18.664 90.1686 18.3824 89.7319 18.0121C89.2953 17.6418 88.947 17.1829 88.6923 16.6458C88.4375 16.1035 88.3128 15.4881 88.3128 14.7998V7.20693H86.8469C86.6026 7.20693 86.4154 7.14956 86.2907 7.04005C86.1659 6.93054 86.1035 6.74802 86.1035 6.49249V4.66208C86.1035 4.41698 86.1659 4.23968 86.2907 4.14059C86.4154 4.0363 86.5974 3.98936 86.8469 3.98936H88.3128C88.3128 3.53567 88.3128 3.08719 88.318 2.64393C88.318 2.19545 88.3232 1.74698 88.3232 1.2985C88.3232 1.12641 88.3752 0.996037 88.4843 0.896955C88.5883 0.797872 88.7546 0.70922 88.973 0.636212C89.1185 0.584064 89.2901 0.521485 89.4928 0.448477C89.6955 0.375469 89.9086 0.307676 90.1218 0.239883C90.3349 0.17209 90.548 0.114727 90.7508 0.0677931C90.9535 0.0208594 91.125 0 91.2602 0C91.5253 0 91.6969 0.0730079 91.7748 0.219024C91.8528 0.36504 91.8944 0.557989 91.8944 0.792658C91.8944 1.32979 91.8944 1.8617 91.8892 2.39362C91.8892 2.92553 91.884 3.46266 91.884 3.99979H93.719C93.9373 3.99979 94.1089 4.05716 94.2284 4.17188C94.348 4.28661 94.4052 4.46391 94.4052 4.71423V6.45599C94.4052 6.72716 94.348 6.92011 94.2284 7.04005C94.1089 7.15999 93.9373 7.21736 93.719 7.21736H91.884V10.1637C91.884 10.4558 91.884 10.7322 91.8892 10.9877C91.8892 11.2432 91.8944 9.95515 91.8944 10.2524V12.6825C91.8944 12.6825 91.8944 12.719 91.8892 12.7347C91.884 12.7503 91.884 12.7712 91.884 12.7868V14.4608C91.884 15.024 91.9932 15.4307 92.2167 15.6758C92.435 15.9209 92.7937 16.0461 93.2875 16.0461C93.4643 16.0461 93.6046 16.1087 93.7086 16.2391C93.8126 16.3642 93.8593 16.5207 93.8593 16.698V18.4762C93.8593 18.6952 93.797 18.8726 93.6722 18.9925C93.5474 19.1176 93.3759 19.1802 93.1576 19.1802L93.1628 19.1698Z" fill="#161616"/>
<path id="Vector_4" d="M107.821 14.9137C107.967 14.8199 108.086 14.7625 108.185 14.7416C108.284 14.7208 108.367 14.7104 108.435 14.7104C108.58 14.7208 108.7 14.7938 108.804 14.9398L109.11 15.3622L110.015 16.6503C110.057 16.7129 110.093 16.7702 110.119 16.838C110.145 16.9006 110.155 16.958 110.155 17.0101C110.155 17.1457 110.108 17.2656 110.015 17.3751C109.921 17.4847 109.797 17.589 109.646 17.6985C108.923 18.2252 108.144 18.6528 107.307 18.9761C106.47 19.2994 105.55 19.4611 104.552 19.4611C103.793 19.4611 103.065 19.362 102.353 19.1586C101.641 18.9605 100.98 18.6789 100.367 18.3138C99.7535 17.954 99.1869 17.5159 98.6775 17.0101C98.1681 16.5043 97.7262 15.9411 97.3571 15.3153C96.9881 14.6947 96.7022 14.0272 96.5046 13.3076C96.3071 12.5931 96.2031 11.8474 96.2031 11.0704C96.2031 10.2934 96.3019 9.54765 96.5046 8.83321C96.7074 8.11878 96.9881 7.45128 97.3571 6.8255C97.7262 6.19971 98.1681 5.64172 98.6775 5.13067C99.1869 4.61961 99.7483 4.19199 100.367 3.82696C100.98 3.46713 101.646 3.18553 102.353 2.98215C103.06 2.78398 103.793 2.67969 104.552 2.67969C105.492 2.67969 106.387 2.8257 107.223 3.11252C108.066 3.40455 108.809 3.79567 109.464 4.28586L109.448 4.27543C109.568 4.39537 109.682 4.49967 109.797 4.58832C109.911 4.67698 109.968 4.81778 109.968 5.00551C109.968 5.05766 109.968 5.11502 109.963 5.18282C109.958 5.25061 109.937 5.31319 109.895 5.37577L108.851 6.97151C108.679 7.22704 108.492 7.35741 108.289 7.35741C108.144 7.35741 107.982 7.2844 107.806 7.13839C107.374 6.77335 106.87 6.4761 106.288 6.24665C105.711 6.01719 105.118 5.90247 104.505 5.90247C103.845 5.90247 103.221 6.04327 102.639 6.31965C102.056 6.59604 101.547 6.97151 101.105 7.44606C100.663 7.92061 100.315 8.46817 100.06 9.09396C99.8055 9.71974 99.6756 10.3768 99.6756 11.0704C99.6756 11.764 99.8055 12.4419 100.06 13.0625C100.315 13.683 100.663 14.2254 101.1 14.6843C101.537 15.1432 102.051 15.5082 102.633 15.7742C103.216 16.0401 103.845 16.1757 104.505 16.1757C105.227 16.1757 105.851 16.0506 106.376 15.8003C106.901 15.5499 107.385 15.2475 107.816 14.8981L107.821 14.9137Z" fill="#161616"/>
<path id="Vector_5" d="M116.519 6.70605C116.732 6.43487 116.971 6.18456 117.247 5.94989C117.517 5.72044 117.829 5.52227 118.182 5.35018C118.536 5.17809 118.936 5.04772 119.388 4.95386C119.841 4.85999 120.345 4.81306 120.917 4.81306C121.878 4.81306 122.726 5.00079 123.464 5.37104C124.202 5.7413 124.821 6.24192 125.325 6.87814C125.824 7.51435 126.203 8.25486 126.463 9.11009C126.723 9.96011 126.853 10.8675 126.853 11.8166V18.2517C126.853 18.5594 126.78 18.7889 126.635 18.9401C126.489 19.0913 126.281 19.1695 126.011 19.1695H124.077C123.739 19.1695 123.511 19.107 123.396 18.9766C123.282 18.8514 123.225 18.622 123.225 18.2987V11.8114C123.225 11.3577 123.147 10.9196 122.991 10.4972C122.835 10.0696 122.606 9.69416 122.315 9.36562C122.024 9.03709 121.665 8.77634 121.249 8.57296C120.833 8.3748 120.371 8.2705 119.861 8.2705C119.472 8.2705 119.082 8.34351 118.692 8.49474C118.302 8.64597 117.948 8.85978 117.626 9.14138C117.304 9.42298 117.044 9.76717 116.841 10.1739C116.638 10.5807 116.529 11.0448 116.524 11.5663V17.8241C116.524 17.9858 116.514 18.1474 116.498 18.3091C116.483 18.4708 116.446 18.6168 116.389 18.7419C116.332 18.8671 116.254 18.9714 116.155 19.0496C116.051 19.1278 115.921 19.1643 115.76 19.1643H113.66C113.379 19.1643 113.171 19.0965 113.041 18.9662C112.911 18.8358 112.844 18.6428 112.844 18.3977V0.969708C112.844 0.750685 112.911 0.56295 113.046 0.422149C113.182 0.276133 113.379 0.203125 113.644 0.203125H115.744C115.942 0.203125 116.119 0.276133 116.28 0.427364C116.441 0.578594 116.524 0.750685 116.524 0.959279V6.70605H116.519Z" fill="#161616"/>
</g>
<g id="Group_2">
<path id="Vector_6" d="M138.331 10.1785C138.331 9.16681 137.858 8.66097 136.907 8.66097C136.777 8.66097 136.616 8.6714 136.424 8.69226C136.231 8.71312 136.101 8.66619 136.029 8.55146C135.909 8.3898 136.101 8.28029 136.6 8.22292C136.777 8.19164 136.949 8.18121 137.125 8.18121C137.973 8.18121 138.55 8.54624 138.856 9.28154C138.986 9.58922 139.054 9.98033 139.054 10.4549C139.054 10.9294 138.851 11.5291 138.441 12.2436C137.723 13.5473 136.6 14.5225 135.067 15.1639C134.557 15.3829 134.027 15.4924 133.476 15.4924C132.925 15.4924 132.364 15.3516 131.776 15.0752C130.695 14.5642 129.941 13.7037 129.52 12.5043C129.359 12.035 129.281 11.4457 129.281 10.7365C129.281 10.0273 129.479 9.13031 129.874 8.04562C130.778 5.92317 132.27 4.11362 134.344 2.61696C136.564 1.00557 138.638 0.197266 140.567 0.197266C142.204 0.197266 143.296 0.859552 143.852 2.17369C144.102 2.74733 144.226 3.43569 144.226 4.23878C144.226 4.50473 144.211 4.77591 144.185 5.05229C144.039 6.32472 143.66 7.78488 143.046 9.42756C142.942 9.70394 142.89 9.89168 142.89 9.98554C142.89 10.0794 142.911 10.1263 142.958 10.1263C143.031 10.142 143.155 9.98554 143.332 9.66222C144.413 7.68579 145.604 5.91274 146.903 4.34307C147.324 3.83202 147.839 3.41483 148.437 3.09151C149.092 2.74211 149.679 2.56481 150.199 2.56481C150.719 2.56481 151.124 2.75776 151.426 3.13844C151.727 3.51913 151.873 4.02497 151.873 4.65596C151.873 6.13698 151.296 8.60361 150.142 12.0611C149.908 12.7494 149.762 13.1875 149.705 13.3804C150.89 11.5187 152.372 9.47449 154.165 7.23732C155.954 5.00536 157.544 3.68079 158.932 3.26881C159.182 3.19581 159.4 3.1593 159.592 3.1593C160.149 3.1593 160.507 3.43569 160.663 3.99368C160.72 4.18663 160.752 4.40565 160.752 4.65596C160.752 5.40169 160.46 6.36122 159.873 7.53456C158.677 9.93861 157.856 11.8472 157.419 13.2709C156.822 15.1482 156.52 16.4259 156.52 17.1142C156.52 17.8026 156.588 18.3762 156.718 18.8299C156.983 19.7373 157.674 20.191 158.797 20.191C158.854 20.191 158.974 20.191 159.161 20.1806C159.343 20.1702 159.447 20.2067 159.468 20.2797C159.488 20.3527 159.436 20.4205 159.317 20.4778C159.192 20.5352 159.067 20.5665 158.943 20.5665C158.818 20.5665 158.719 20.556 158.646 20.5456C156.338 20.311 155.184 19.122 155.184 16.9839C155.184 16.2069 155.34 15.3256 155.657 14.3347C155.974 13.3439 156.239 12.5878 156.458 12.0611C156.806 11.211 157.544 9.5475 158.672 7.07044C159.067 6.14741 159.265 5.44341 159.265 4.95843C159.265 4.47344 159.062 4.23356 158.651 4.23356C158.08 4.23356 157.196 4.81763 156 5.99097C155.387 6.60632 154.722 7.35726 154.009 8.24378C153.292 9.13031 152.237 10.6843 150.833 12.9006C149.43 15.1222 148.541 16.6866 148.161 17.594C147.823 18.3867 147.382 18.783 146.825 18.783C146.43 18.783 146.196 18.6422 146.124 18.3658C146.082 18.2459 146.082 18.1572 146.124 18.0894C146.165 18.0216 146.306 17.7765 146.54 17.3541C146.773 16.9317 147.013 16.4832 147.262 16.0139C147.512 15.5446 147.808 14.9084 148.151 14.1001C148.494 13.2918 148.811 12.473 149.102 11.6387C149.804 9.57357 150.277 7.45113 150.527 5.2661C150.553 5.01579 150.568 4.70811 150.568 4.33264C150.568 3.95717 150.469 3.66514 150.272 3.4409C150.074 3.22188 149.866 3.11237 149.648 3.11237C148.931 3.11237 148.146 3.65471 147.283 4.7394C146.113 6.18913 145.1 7.61279 144.237 9.01558C143.374 10.4132 142.714 11.5917 142.256 12.5408C141.793 13.4951 141.263 14.6372 140.655 15.9826C140.047 17.3228 139.73 18.0373 139.688 18.1259C139.647 18.2146 139.6 18.3241 139.537 18.4545C139.475 18.5848 139.418 18.71 139.371 18.8299C139.179 19.2523 138.773 19.4661 138.144 19.4661C137.78 19.4661 137.583 19.3514 137.552 19.1168C137.552 19.075 137.557 19.0229 137.572 18.9655C138.534 17.4689 139.605 15.2056 140.769 12.1758C142.261 8.33765 143.005 5.53727 143.005 3.77987C143.005 1.6835 142.142 0.635313 140.421 0.635313C139.309 0.635313 137.91 1.17244 136.226 2.24149C134.537 3.31053 133.144 4.68204 132.031 6.35079C131.594 7.00786 131.267 7.64929 131.043 8.26464C130.664 9.39105 130.472 10.288 130.472 10.9451C130.472 12.8329 131.101 14.0792 132.353 14.6789C132.79 14.8979 133.237 15.0074 133.689 15.0074C135.264 15.0074 136.559 14.1522 137.567 12.4365C138.077 11.5709 138.337 10.8199 138.337 10.1733L138.331 10.1785Z" fill="#161616"/>
<path id="Vector_7" d="M156.224 24.9895C155.579 24.9895 155.086 24.8539 154.732 24.5827C154.379 24.3115 154.207 23.9882 154.207 23.6075C154.207 23.2269 154.316 22.794 154.535 22.309C154.914 21.5633 155.6 20.9584 156.593 20.5047C157.336 20.1553 158.324 19.8268 159.551 19.5295C160.778 19.2271 161.568 19.0289 161.916 18.9246C162.441 18.0016 163.07 16.3537 163.798 13.9809C162.951 15.4776 162.244 16.5206 161.672 17.1255C161.1 17.7252 160.523 18.0277 159.941 18.0277C159.151 18.0277 158.693 17.6991 158.558 17.0368C158.324 15.9782 159.005 14.372 159.104 14.1374L159.499 13.3708C159.993 12.4165 160.403 11.6134 160.726 10.9511C160.871 10.6434 161.157 10.4922 161.578 10.4922H162.914C162.883 10.5235 162.81 10.5808 162.696 10.6695C162.431 10.8468 162.233 11.0502 162.103 11.2848C161.578 12.1922 160.918 13.4907 160.133 15.1751C159.811 15.8635 159.65 16.3693 159.65 16.6926C159.65 17.016 159.707 17.2402 159.816 17.3758C159.925 17.5114 160.076 17.574 160.263 17.574C160.539 17.574 160.928 17.2819 161.422 16.6926C162.457 15.4776 163.606 13.5637 164.863 10.9563C165.025 10.6486 165.311 10.4974 165.716 10.4974H166.901C166.522 10.7634 166.22 11.0919 166.002 11.4987C165.784 11.9054 165.544 12.4478 165.29 13.1361C165.035 13.8245 164.713 14.7423 164.328 15.8843C163.943 17.0264 163.647 17.8868 163.439 18.4553C164.812 18.0433 165.862 17.3184 166.595 16.2807C166.917 15.827 167.374 15.0187 167.977 13.861C168.081 13.6576 168.17 13.5742 168.253 13.6211C168.336 13.6628 168.372 13.7254 168.372 13.7984C168.372 13.8714 168.253 14.153 168.008 14.6432C167.764 15.1334 167.525 15.5871 167.275 16.0043C167.026 16.4215 166.704 16.8491 166.314 17.2871C165.924 17.7252 165.482 18.0746 164.999 18.3301C164.515 18.5856 163.876 18.862 163.07 19.1541C161.947 21.2035 160.814 22.7158 159.676 23.6806C158.61 24.5619 157.456 24.9999 156.214 24.9999L156.224 24.9895ZM154.956 22.8149C154.794 23.1382 154.716 23.4355 154.716 23.7066C154.716 23.9778 154.82 24.1864 155.023 24.3324C155.226 24.4784 155.486 24.5514 155.793 24.5514C156.64 24.5514 157.544 24.1134 158.511 23.2425C159.473 22.3716 160.32 21.4382 161.053 20.4421L161.537 19.6286C159.125 20.2596 157.607 20.7133 156.983 20.9897C156.047 21.4017 155.377 22.0066 154.966 22.8149H154.956Z" fill="#161616"/>
</g>
<path id="Vector_8" d="M165.382 0.917364C165.382 0.745274 165.439 0.609688 165.548 0.510606C165.658 0.406309 165.798 0.359375 165.97 0.359375H179.365C179.516 0.359375 179.657 0.406309 179.781 0.500176C179.906 0.594043 179.974 0.734844 179.989 0.922579V3.15454C179.989 3.32663 179.937 3.47264 179.828 3.60301C179.719 3.73339 179.568 3.79596 179.365 3.79596H174.526V18.7417C174.526 18.893 174.474 19.0338 174.365 19.1537C174.261 19.2736 174.11 19.331 173.928 19.331H171.417C171.267 19.331 171.126 19.2736 171.001 19.1641C170.877 19.0546 170.814 18.9138 170.814 18.7417V3.79075H165.964C165.793 3.79075 165.652 3.7386 165.543 3.62909C165.434 3.52479 165.377 3.36313 165.377 3.14932V0.917364H165.382Z" fill="#161616"/>
<path id="Vector_9" d="M192.81 17.5366C192.062 18.1728 191.246 18.6787 190.357 19.0437C189.468 19.4087 188.496 19.5913 187.435 19.5913C186.287 19.5913 185.2 19.3722 184.176 18.9394C183.152 18.5066 182.248 17.9069 181.478 17.1507C180.704 16.3946 180.09 15.5028 179.638 14.4859C179.186 13.469 178.957 12.3739 178.957 11.1953C178.957 10.4392 179.051 9.7039 179.238 8.99989C179.425 8.29589 179.69 7.62839 180.033 7.01304C180.376 6.39768 180.797 5.82926 181.286 5.31299C181.774 4.79672 182.326 4.35867 182.934 3.98842C183.542 3.61817 184.197 3.33656 184.909 3.1384C185.616 2.94023 186.365 2.83594 187.155 2.83594C187.799 2.83594 188.439 2.91416 189.062 3.07061C189.691 3.22705 190.289 3.45129 190.851 3.74332C191.417 4.03535 191.942 4.38475 192.436 4.79672C192.93 5.2087 193.361 5.67803 193.736 6.1943C194.245 6.90874 194.619 7.68054 194.859 8.50448C195.098 9.32843 195.217 10.2462 195.217 11.2527C195.217 11.4978 195.207 11.7064 195.186 11.8733C195.165 12.0402 195.113 12.1757 195.025 12.2748C194.937 12.3739 194.812 12.4521 194.645 12.4991C194.474 12.546 194.24 12.5669 193.933 12.5669H182.637C182.747 13.1822 182.96 13.7246 183.266 14.1939C183.578 14.6684 183.942 15.0648 184.368 15.3933C184.795 15.7218 185.257 15.9669 185.756 16.1338C186.255 16.3007 186.76 16.3841 187.259 16.3841C187.638 16.3841 188.007 16.3476 188.361 16.2694C188.714 16.1912 189.042 16.0921 189.348 15.9617C189.655 15.8314 189.936 15.6853 190.196 15.5185C190.456 15.3516 190.684 15.1795 190.877 15.0022C190.877 14.9918 190.877 14.9918 190.887 14.9918C190.991 14.8979 191.085 14.8249 191.178 14.7675C191.272 14.7102 191.37 14.6841 191.469 14.6841C191.547 14.6841 191.63 14.7102 191.729 14.7623C191.828 14.8145 191.922 14.8979 192.015 15.0178C192.244 15.2994 192.441 15.5341 192.602 15.7218C192.764 15.9096 192.894 16.066 192.998 16.1964C193.102 16.3268 193.174 16.4363 193.221 16.5301C193.268 16.624 193.289 16.7179 193.289 16.8117C193.289 17.0516 193.128 17.2863 192.805 17.5262L192.81 17.5366ZM187.155 6.01178C186.656 6.01178 186.167 6.10044 185.689 6.28817C185.211 6.47069 184.779 6.721 184.384 7.03389C183.989 7.34679 183.646 7.71704 183.355 8.14466C183.064 8.57228 182.845 9.03118 182.71 9.52659H191.729C191.594 9.00511 191.386 8.53056 191.111 8.10294C190.835 7.67532 190.502 7.30507 190.113 6.99218C189.723 6.67928 189.276 6.4394 188.777 6.27253C188.278 6.10044 187.737 6.017 187.16 6.017L187.155 6.01178Z" fill="#161616"/>
<path id="Vector_10" d="M210.451 17.5366C209.702 18.1728 208.886 18.6787 207.997 19.0437C207.109 19.4087 206.136 19.5913 205.076 19.5913C203.927 19.5913 202.841 19.3722 201.817 18.9394C200.793 18.5066 199.888 17.9069 199.119 17.1507C198.344 16.3946 197.731 15.5028 197.279 14.4859C196.826 13.469 196.598 12.3739 196.598 11.1953C196.598 10.4392 196.691 9.7039 196.878 8.99989C197.065 8.29589 197.331 7.62839 197.674 7.01304C198.017 6.39768 198.438 5.82926 198.926 5.31299C199.415 4.79672 199.966 4.35867 200.574 3.98842C201.183 3.61817 201.838 3.33656 202.55 3.1384C203.257 2.94023 204.005 2.83594 204.795 2.83594C205.44 2.83594 206.079 2.91416 206.703 3.07061C207.332 3.22705 207.93 3.45129 208.491 3.74332C209.058 4.03535 209.583 4.38475 210.077 4.79672C210.571 5.2087 211.002 5.67803 211.376 6.1943C211.886 6.90874 212.26 7.68054 212.499 8.50448C212.738 9.32843 212.858 10.2462 212.858 11.2527C212.858 11.4978 212.847 11.7064 212.827 11.8733C212.806 12.0402 212.754 12.1757 212.665 12.2748C212.577 12.3739 212.452 12.4521 212.286 12.4991C212.114 12.546 211.881 12.5669 211.574 12.5669H200.278C200.387 13.1822 200.6 13.7246 200.907 14.1939C201.219 14.6684 201.583 15.0648 202.009 15.3933C202.435 15.7218 202.898 15.9669 203.397 16.1338C203.896 16.3007 204.4 16.3841 204.899 16.3841C205.279 16.3841 205.648 16.3476 206.001 16.2694C206.355 16.1912 206.682 16.0921 206.989 15.9617C207.296 15.8314 207.576 15.6853 207.836 15.5185C208.096 15.3516 208.325 15.1795 208.517 15.0022C208.517 14.9918 208.517 14.9918 208.528 14.9918C208.632 14.8979 208.725 14.8249 208.819 14.7675C208.912 14.7102 209.011 14.6841 209.11 14.6841C209.188 14.6841 209.271 14.7102 209.37 14.7623C209.469 14.8145 209.562 14.8979 209.656 15.0178C209.884 15.2994 210.082 15.5341 210.243 15.7218C210.404 15.9096 210.534 16.066 210.638 16.1964C210.742 16.3268 210.815 16.4363 210.862 16.5301C210.908 16.624 210.929 16.7179 210.929 16.8117C210.929 17.0516 210.768 17.2863 210.446 17.5262L210.451 17.5366ZM204.795 6.01178C204.296 6.01178 203.808 6.10044 203.329 6.28817C202.851 6.47069 202.42 6.721 202.025 7.03389C201.63 7.34679 201.286 7.71704 200.995 8.14466C200.704 8.57228 200.486 9.03118 200.351 9.52659H209.37C209.235 9.00511 209.027 8.53056 208.751 8.10294C208.476 7.67532 208.143 7.30507 207.753 6.99218C207.363 6.67928 206.916 6.4394 206.417 6.27253C205.918 6.10044 205.378 6.017 204.801 6.017L204.795 6.01178Z" fill="#161616"/>
<path id="Vector_11" d="M216.585 14.7532C216.761 15.0348 216.99 15.2747 217.26 15.4833C217.531 15.6867 217.811 15.8536 218.092 15.9891C218.378 16.1195 218.648 16.2186 218.908 16.276C219.168 16.3385 219.371 16.3646 219.527 16.3646C219.766 16.3646 220.047 16.3385 220.369 16.2864C220.691 16.2342 220.993 16.1456 221.279 16.01C221.565 15.8796 221.804 15.6971 222.006 15.4729C222.204 15.2486 222.308 14.9618 222.308 14.6124C222.308 14.263 222.23 13.9971 222.074 13.7833C221.918 13.5695 221.705 13.3921 221.435 13.2513C221.164 13.1105 220.863 12.9958 220.52 12.902C220.177 12.8081 219.813 12.7038 219.433 12.5943C218.539 12.3544 217.78 12.0676 217.151 11.7338C216.522 11.3949 216.008 11.0142 215.602 10.5761C215.197 10.1433 214.906 9.66353 214.718 9.14726C214.531 8.63099 214.438 8.06257 214.438 7.44722C214.438 6.75885 214.573 6.12786 214.843 5.55944C215.114 4.99102 215.498 4.50082 215.992 4.08885C216.486 3.68209 217.078 3.36399 217.77 3.13975C218.461 2.91551 219.225 2.80078 220.068 2.80078C220.66 2.80078 221.19 2.85293 221.658 2.96244C222.126 3.07195 222.557 3.2284 222.958 3.44221C223.358 3.65602 223.732 3.92197 224.086 4.2453C224.439 4.56862 224.798 4.9493 225.162 5.38213C225.292 5.53336 225.354 5.68459 225.354 5.83061C225.354 5.98184 225.271 6.12786 225.099 6.26344C224.969 6.36774 224.819 6.4929 224.647 6.64413C224.476 6.79536 224.299 6.94659 224.133 7.0926C223.961 7.23862 223.8 7.35856 223.649 7.46286C223.498 7.56716 223.368 7.61409 223.264 7.61409C223.077 7.61409 222.895 7.50458 222.719 7.28034C222.531 7.06132 222.344 6.86315 222.157 6.70149C221.97 6.53462 221.773 6.39903 221.57 6.29473C221.367 6.19044 221.144 6.107 220.91 6.05485C220.67 5.99749 220.411 5.97141 220.13 5.97141C219.901 5.97141 219.662 6.00792 219.413 6.07571C219.163 6.1435 218.934 6.2478 218.726 6.38339C218.518 6.51897 218.347 6.68585 218.207 6.87358C218.066 7.06653 217.999 7.28034 217.999 7.52022C217.999 7.79139 218.087 8.02606 218.258 8.21901C218.43 8.41196 218.654 8.57884 218.919 8.71964C219.184 8.86044 219.475 8.97517 219.792 9.06903C220.109 9.1629 220.4 9.24634 220.671 9.32456C221.45 9.54359 222.168 9.79911 222.817 10.0911C223.467 10.3832 224.034 10.7326 224.502 11.1445C224.975 11.5565 225.339 12.0415 225.604 12.5995C225.864 13.1575 225.999 13.8093 225.999 14.5603C225.999 15.3529 225.843 16.0622 225.531 16.6879C225.219 17.3137 224.782 17.8456 224.231 18.2785C223.68 18.7113 223.02 19.045 222.261 19.2745C221.502 19.504 220.676 19.6187 219.787 19.6187C219.251 19.6187 218.711 19.5613 218.155 19.4466C217.604 19.3319 217.073 19.1546 216.569 18.9095C216.065 18.6644 215.597 18.3567 215.171 17.976C214.739 17.5953 214.381 17.1468 214.095 16.6306C213.965 16.4168 213.902 16.2238 213.902 16.0569C213.902 15.9474 213.928 15.8483 213.986 15.7701C214.043 15.6919 214.115 15.6085 214.209 15.5355L215.633 14.4351C215.763 14.3569 215.878 14.3204 215.976 14.3204C216.096 14.3204 216.2 14.3621 216.294 14.4403C216.387 14.5186 216.491 14.6281 216.6 14.7637L216.585 14.7532Z" fill="#161616"/>
<path id="Vector_12" d="M36.5898 12.2987C36.5898 17.7013 32.2077 22.0922 26.8275 22.0922C23.5682 22.0922 20.5636 20.4808 18.7598 17.816L18.9053 17.7117C19.5395 17.2528 20.2205 16.7835 20.9379 16.2933C22.253 18.2436 24.4415 19.4274 26.8275 19.4274C30.747 19.4274 33.9387 16.2307 33.9387 12.2935C33.9387 8.35628 30.7522 5.15958 26.8275 5.15958C24.6338 5.15958 22.4713 6.7136 19.4823 8.86734L19.238 9.04464C18.1412 9.83208 16.9352 10.6508 15.6564 11.5165C15.2925 11.7616 14.9183 12.0171 14.5388 12.2726L15.2977 13.3678L10.0215 13.8006L12.2827 8.99771L13.0261 10.0772C13.416 9.81644 13.7954 9.5557 14.1645 9.30538C14.6739 8.9612 15.173 8.62224 15.6564 8.2937C16.3738 7.80872 17.0547 7.33417 17.6889 6.87526L17.8345 6.77096L17.9281 6.70317C21.1926 4.35649 23.7761 2.5 26.8223 2.5C32.2077 2.5 36.5846 6.89612 36.5846 12.2987H36.5898Z" fill="#FF9719"/>
<path id="Vector_13" d="M26.5736 10.7864L24.3071 15.5893L23.5638 14.5098C23.1739 14.7758 22.7892 15.0313 22.4149 15.2868C21.9107 15.631 21.4117 15.9648 20.9334 16.2933C20.2161 16.7835 19.5351 17.2528 18.9009 17.7117L18.7554 17.816L18.6618 17.8838C15.3921 20.2357 12.8137 22.0922 9.76755 22.0922C4.38214 22.0922 0 17.6961 0 12.2987C0 6.90134 4.38214 2.5 9.76755 2.5C13.0217 2.5 16.0263 4.1166 17.8353 6.77618L17.6897 6.88048C17.0555 7.33938 16.3746 7.80872 15.6572 8.29892C14.342 6.34856 12.1432 5.16479 9.76755 5.16479C5.84805 5.16479 2.65632 8.3615 2.65632 12.2987C2.65632 16.2359 5.84286 19.4326 9.76755 19.4326C11.9612 19.4326 14.1237 17.8786 17.1179 15.7197L17.357 15.5476C18.4539 14.7601 19.6599 13.9414 20.9334 13.0757C21.3025 12.8254 21.6716 12.5751 22.0563 12.3144L21.2973 11.2192L26.5736 10.7864Z" fill="#00A6AC"/>
</g>
</svg>
