<svg width="20" height="23" viewBox="0 0 20 23" fill="none" xmlns="http://www.w3.org/2000/svg">
<g id="about">
<path id="Vector" d="M10 11.5C11.0384 11.5 12.0534 11.1921 12.9167 10.6152C13.7801 10.0383 14.453 9.2184 14.8504 8.25909C15.2477 7.29978 15.3517 6.24418 15.1491 5.22578C14.9466 4.20738 14.4465 3.27192 13.7123 2.53769C12.9781 1.80347 12.0426 1.30345 11.0242 1.10088C10.0058 0.898307 8.95022 1.00227 7.99091 1.39963C7.0316 1.79699 6.21166 2.4699 5.63478 3.33326C5.05791 4.19662 4.75 5.21165 4.75 6.25C4.75 7.64239 5.30312 8.97775 6.28769 9.96231C7.27226 10.9469 8.60761 11.5 10 11.5ZM10 2.5C10.7417 2.5 11.4667 2.71994 12.0834 3.13199C12.7001 3.54405 13.1807 4.12972 13.4645 4.81494C13.7484 5.50016 13.8226 6.25416 13.6779 6.98159C13.5333 7.70902 13.1761 8.37721 12.6517 8.90165C12.1272 9.4261 11.459 9.78325 10.7316 9.92795C10.0042 10.0726 9.25016 9.99838 8.56494 9.71455C7.87971 9.43072 7.29404 8.95008 6.88199 8.33339C6.46993 7.71671 6.25 6.99168 6.25 6.25C6.25 5.25544 6.64509 4.30161 7.34835 3.59835C8.05161 2.89509 9.00544 2.5 10 2.5Z" fill="#161616" stroke="black" stroke-width="0.5"/>
<path id="Vector_2" d="M10.75 13H9.25C7.06196 13 4.96354 13.8692 3.41637 15.4164C1.86919 16.9635 1 19.062 1 21.25C1 21.4489 1.07902 21.6397 1.21967 21.7803C1.36032 21.921 1.55109 22 1.75 22H18.25C18.4489 22 18.6397 21.921 18.7803 21.7803C18.921 21.6397 19 21.4489 19 21.25C19 19.062 18.1308 16.9635 16.5836 15.4164C15.0365 13.8692 12.938 13 10.75 13ZM2.545 20.5C2.72942 18.8505 3.51513 17.3267 4.75201 16.2199C5.98889 15.1131 7.5902 14.5008 9.25 14.5H10.75C12.4098 14.5008 14.0111 15.1131 15.248 16.2199C16.4849 17.3267 17.2706 18.8505 17.455 20.5H2.545Z" fill="#161616" stroke="black" stroke-width="0.5"/>
</g>
</svg>
