<svg width="23" height="23" viewBox="0 0 23 23" fill="none" xmlns="http://www.w3.org/2000/svg">
<g id="Property 1=Default">
<g id="Group 37885">
<path id="Vector" d="M8.33366 21.1243C8.83992 21.1243 9.25033 20.7139 9.25033 20.2077C9.25033 19.7014 8.83992 19.291 8.33366 19.291C7.8274 19.291 7.41699 19.7014 7.41699 20.2077C7.41699 20.7139 7.8274 21.1243 8.33366 21.1243Z" stroke="#161616" stroke-width="2" stroke-linecap="round" stroke-linejoin="round"/>
<path id="Vector_2" d="M18.4167 21.1243C18.9229 21.1243 19.3333 20.7139 19.3333 20.2077C19.3333 19.7014 18.9229 19.291 18.4167 19.291C17.9104 19.291 17.5 19.7014 17.5 20.2077C17.5 20.7139 17.9104 21.1243 18.4167 21.1243Z" stroke="#161616" stroke-width="2" stroke-linecap="round" stroke-linejoin="round"/>
<path id="Vector_3" d="M1 1.875H4.66667L7.12333 14.1492C7.20716 14.5712 7.43675 14.9503 7.77192 15.2201C8.10708 15.4899 8.52647 15.6332 8.95667 15.625H17.8667C18.2969 15.6332 18.7162 15.4899 19.0514 15.2201C19.3866 14.9503 19.6162 14.5712 19.7 14.1492L21.1667 6.45833H5.58333" stroke="#161616" stroke-width="2" stroke-linecap="round" stroke-linejoin="round"/>
</g>
</g>
</svg>
