<svg xmlns="http://www.w3.org/2000/svg" width="27" height="28" viewBox="0 0 27 28" fill="none">
  <path d="M25.932 11.5475C25.2172 6.0602 19.9459 2 13.5367 2C7.12747 2 1.60227 6.7323 1.04269 13.1494C0.506632 19.2812 5.07727 24.9848 11.4536 25.9377C12.5868 26.1034 14.0775 25.9515 14.9051 25.3254C15.3847 24.9664 15.0461 23.323 14.7546 22.347C14.275 20.7405 14.8298 19.8106 16.4051 19.4837C17.3032 19.295 18.2719 19.4239 19.2077 19.3686C23.6466 19.1016 26.4821 15.7964 25.932 11.5475ZM5.39232 14.6409C4.24496 14.6409 3.3139 13.7341 3.3139 12.6108C3.3139 11.4876 4.24496 10.5807 5.39232 10.5807C6.53968 10.5807 7.46603 11.4876 7.46603 12.6108C7.46603 13.7341 6.53498 14.6409 5.39232 14.6409ZM8.95666 9.26877C7.814 9.26877 6.88295 8.3573 6.88295 7.23867C6.88295 6.12005 7.814 5.20857 8.95666 5.20857C10.0993 5.20857 11.0351 6.11544 11.0351 7.23867C11.0351 8.3619 10.104 9.26877 8.95666 9.26877ZM15.8314 8.41254C14.6841 8.41254 13.7577 7.50567 13.7577 6.38244C13.7577 5.25921 14.6841 4.35234 15.8314 4.35234C16.9788 4.35234 17.9051 5.26381 17.9051 6.38244C17.9051 7.50107 16.9788 8.41254 15.8314 8.41254ZM21.1544 12.6108C20.0118 12.6108 19.0807 11.704 19.0807 10.5807C19.0807 9.45751 20.0118 8.55064 21.1544 8.55064C22.2971 8.55064 23.2328 9.45751 23.2328 10.5807C23.2328 11.704 22.3018 12.6108 21.1544 12.6108Z" fill="url(#paint0_linear_1511_1235)"/>
  <defs>
    <linearGradient id="paint0_linear_1511_1235" x1="13.6962" y1="-1.91289" x2="10.7659" y2="30.3224" gradientUnits="userSpaceOnUse">
      <stop stop-color="#FFC403"/>
      <stop offset="1" stop-color="#FF3DDC"/>
    </linearGradient>
  </defs>
</svg>