<svg width="90" height="90" viewBox="0 0 90 90" fill="none" xmlns="http://www.w3.org/2000/svg">
<circle cx="45" cy="45" r="44" fill="white" stroke="url(#paint0_linear_1_1786)" stroke-width="2"/>
<path d="M56.932 42.5475C56.2172 37.0602 50.9459 33 44.5367 33C38.1275 33 32.6023 37.7323 32.0427 44.1494C31.5066 50.2812 36.0773 55.9848 42.4536 56.9377C43.5868 57.1034 45.0775 56.9515 45.9051 56.3254C46.3847 55.9664 46.0461 54.323 45.7546 53.347C45.275 51.7405 45.8298 50.8106 47.4051 50.4837C48.3032 50.295 49.2719 50.4239 50.2077 50.3686C54.6466 50.1016 57.4821 46.7964 56.932 42.5475ZM36.3923 45.6409C35.245 45.6409 34.3139 44.7341 34.3139 43.6108C34.3139 42.4876 35.245 41.5807 36.3923 41.5807C37.5397 41.5807 38.466 42.4876 38.466 43.6108C38.466 44.7341 37.535 45.6409 36.3923 45.6409ZM39.9567 40.2688C38.814 40.2688 37.8829 39.3573 37.8829 38.2387C37.8829 37.12 38.814 36.2086 39.9567 36.2086C41.0993 36.2086 42.0351 37.1154 42.0351 38.2387C42.0351 39.3619 41.104 40.2688 39.9567 40.2688ZM46.8314 39.4125C45.6841 39.4125 44.7577 38.5057 44.7577 37.3824C44.7577 36.2592 45.6841 35.3523 46.8314 35.3523C47.9788 35.3523 48.9051 36.2638 48.9051 37.3824C48.9051 38.5011 47.9788 39.4125 46.8314 39.4125ZM52.1544 43.6108C51.0118 43.6108 50.0807 42.704 50.0807 41.5807C50.0807 40.4575 51.0118 39.5506 52.1544 39.5506C53.2971 39.5506 54.2328 40.4575 54.2328 41.5807C54.2328 42.704 53.3018 43.6108 52.1544 43.6108Z" fill="url(#paint1_linear_1_1786)"/>
<defs>
<linearGradient id="paint0_linear_1_1786" x1="45" y1="0" x2="45" y2="90" gradientUnits="userSpaceOnUse">
<stop stop-color="#FF3CDF"/>
<stop offset="1" stop-color="#FFC700"/>
</linearGradient>
<linearGradient id="paint1_linear_1_1786" x1="44.6962" y1="29.0871" x2="41.7659" y2="61.3224" gradientUnits="userSpaceOnUse">
<stop stop-color="#FFC402"/>
<stop offset="1" stop-color="#FF3CDE"/>
</linearGradient>
</defs>
</svg>
