<svg xmlns="http://www.w3.org/2000/svg" width="20" height="12" viewBox="0 0 40 24" fill="none">
  <path d="M28.87 22.3731C29.2715 21.0906 28.9587 21.3067 30.2777 21.2465C31.9828 21.168 33.689 21.0992 35.3407 20.643C36.323 20.3714 37.2719 19.9783 38.2723 19.6273C38.1741 19.2744 38.1188 18.9952 38.0082 18.7389C37.9786 18.67 37.7698 18.627 37.662 18.6518C37.0125 18.802 36.3707 18.9904 35.7203 19.1386C33.5841 19.6245 31.4145 19.788 29.2296 19.8272C25.4034 19.8961 21.5954 20.2078 17.7959 20.6688C15.4423 20.9538 13.081 21.1814 10.7034 21.0236C9.32062 20.9318 7.95877 20.7052 6.6446 20.2538C5.48588 19.8559 4.32907 19.4494 3.18275 19.02C2.88806 18.9091 2.62008 18.7111 2.36259 18.5218C2.21954 18.4175 1.92199 18.0866 1.80469 17.947C1.82662 17.924 2.04978 18.0646 2.07076 18.0417L2.81654 18.4223L2.85373 18.3802C2.67921 18.1842 2.50469 17.9891 2.33016 17.793C1.87621 17.2833 1.75796 16.7075 1.99542 16.062C2.08602 15.8152 2.14896 15.5542 2.26913 15.3237C2.78316 14.3396 3.59665 14.0163 4.73057 14.2765C6.04664 14.5796 7.38465 14.7078 8.73601 14.6571C9.41217 14.6313 10.0464 14.4505 10.6472 14.1225C10.8684 14.002 11.1469 13.9924 11.392 13.9102C11.6705 13.8164 11.9556 13.7265 12.2103 13.586C12.5707 13.3861 12.9055 13.1393 13.1649 12.9691C13.5025 13.3201 13.8143 13.6108 14.0823 13.9379C14.2101 14.0938 14.2568 14.3166 14.3522 14.5375C14.5601 14.2698 14.9111 14.0833 14.6297 13.6539C14.583 13.5821 14.6755 13.3985 14.7356 13.2828C14.8548 13.0552 15.0093 12.8467 15.1237 12.6181C15.2191 12.4278 15.3593 12.3742 15.4785 12.5292C15.736 12.861 15.9611 13.2197 16.1852 13.5764C16.2443 13.6701 16.25 13.7973 16.2796 13.9082C16.7269 13.8117 16.8823 13.5697 16.7431 13.1862C16.6754 12.9987 16.5628 12.8247 16.4579 12.6525C16.2367 12.2891 16.4474 11.524 16.8385 11.3605C16.9252 11.3241 17.0797 11.3567 17.1617 11.416C17.5985 11.7335 17.9466 12.116 17.9695 12.7004C17.9714 12.7597 17.9628 12.8342 17.9934 12.8744C18.0658 12.9691 18.1593 13.0475 18.2432 13.1336C18.3252 13.0427 18.4502 12.9634 18.4778 12.8582C18.515 12.7157 18.5074 12.5445 18.4654 12.401C18.3462 12.0013 18.2022 11.6091 18.063 11.2161C17.98 10.9799 17.8722 10.7513 17.8055 10.5103C17.7511 10.3142 17.857 10.1698 18.0534 10.275C18.6914 10.6155 19.3705 10.9158 19.6852 11.6484C19.7653 11.8348 19.8473 12.0232 19.956 12.1925C20.0037 12.2671 20.1344 12.3503 20.2011 12.3322C20.2784 12.3111 20.3804 12.1801 20.3766 12.1017C20.3661 11.8788 20.3461 11.6407 20.2602 11.4389C20.0047 10.8345 19.7128 10.2454 19.442 9.64667C19.3705 9.48887 19.3218 9.32055 19.235 9.08337C19.4096 9.1178 19.5164 9.11685 19.6013 9.15893C20.5187 9.61607 21.3551 10.1478 21.5496 11.2802C21.562 11.3509 21.7384 11.4666 21.7775 11.4456C21.8948 11.3844 22.0532 11.2725 22.0646 11.1654C22.0818 11.0133 21.9959 10.8431 21.932 10.6891C21.5687 9.81786 21.1958 8.95139 20.8325 8.07919C20.7609 7.908 20.7218 7.72437 20.6417 7.4585C20.8038 7.54649 20.8859 7.58187 20.9593 7.63161C22.0102 8.35462 23.0765 9.05659 23.9405 10.0149C23.9882 10.0675 24.0387 10.1354 24.0998 10.1545C24.2027 10.187 24.3715 10.2348 24.4116 10.1889C24.4784 10.1115 24.5203 9.93358 24.4755 9.85325C24.3611 9.64763 24.2142 9.44966 24.0416 9.28995C23.2615 8.56502 22.9248 7.61343 22.6578 6.62455C22.6425 6.57004 22.6483 6.50979 22.6416 6.40363C22.776 6.41319 22.8962 6.39885 22.9983 6.43328C23.4055 6.57386 23.7307 6.42754 23.9977 6.13967C24.2161 5.90441 24.3944 5.6328 24.6004 5.3851C24.7854 5.16226 24.9829 4.94899 25.1612 4.74816C24.7997 4.79597 24.5365 5.04846 24.3181 5.35354C23.8012 6.07368 23.6019 6.3692 22.385 5.76286C21.4876 5.31624 21.4934 5.30667 21.9492 4.41534C22.2429 3.84248 22.5348 3.2677 22.8266 2.69388C23.2338 1.89053 23.6782 1.69734 24.5518 1.94887C24.6281 1.97086 24.7025 1.9986 24.7997 1.97373C24.6042 1.87236 24.4097 1.76811 24.2123 1.67152C23.9834 1.55962 23.8499 1.40661 23.9357 1.13021C24.0301 0.82609 24.2371 0.63386 24.5442 0.700805C24.9724 0.794529 25.4091 0.909294 25.7992 1.10439C26.7042 1.5558 27.5988 2.03303 28.4666 2.55042C29.2763 3.03339 29.3335 3.27057 29.0608 4.18103C29.0245 4.30344 29.0007 4.42873 28.9606 4.59514C29.3888 4.62765 29.7779 4.64487 30.1642 4.68982C31.7711 4.87535 33.3781 5.06758 34.9841 5.26173C35.1491 5.28181 35.3159 5.31528 35.4714 5.37171C35.9397 5.54194 36.3583 5.5209 36.8409 5.31146C37.9891 4.81319 39.0839 5.70644 38.898 6.94876C38.8703 7.13429 38.7549 7.33131 38.6243 7.47094C38.4736 7.63352 38.28 7.79036 38.0749 7.86018C37.2138 8.15474 36.9515 8.84046 36.9858 9.63328C37.0259 10.56 37.1708 11.4839 37.3025 12.4048C37.3215 12.5416 37.4941 12.709 37.6334 12.7644C37.9052 12.8715 37.951 13.0255 37.9119 13.2923C37.8718 13.5678 37.8632 13.8556 37.8937 14.1311C38.0053 15.1401 38.0826 16.1586 38.2809 17.1513C38.4402 17.9432 38.7206 18.7178 39.0143 19.4734C39.3119 20.2404 39.2699 20.621 38.6109 21.1307C37.4598 22.023 36.1333 22.5576 34.7027 22.681C32.9976 22.8283 31.279 22.8312 29.5662 22.8723C29.036 22.8847 28.9263 22.768 28.8643 22.3664V22.3712L28.87 22.3731Z" fill="url(#paint0_linear_1511_1157)"/>
  <path d="M36.7578 7.68212C37.2099 7.46789 37.6257 7.30244 38.011 7.08248C38.4726 6.81756 38.484 6.09646 38.0549 5.86215C37.6591 5.64601 36.8876 5.80381 36.6186 6.15862C36.5919 6.19305 36.5671 6.24565 36.5719 6.28582C36.631 6.75253 36.6959 7.21924 36.7588 7.68212H36.7578Z" fill="url(#paint1_linear_1511_1157)"/>
  <path d="M37.1441 18.0296C37.5523 18.0497 37.6906 17.8928 37.6582 17.5371C37.5637 16.5051 37.5208 15.4675 37.3911 14.4403C37.2862 13.6102 37.4836 13.5624 36.4413 13.7843C36.4241 13.7881 36.4117 13.8091 36.3945 13.8235C36.9429 13.8483 36.9829 13.8531 37.0163 14.4126C37.0812 15.4799 37.105 16.5501 37.1441 17.6193C37.1489 17.7475 37.1441 17.8756 37.1441 18.0286V18.0296Z" fill="url(#paint2_linear_1511_1157)"/>
  <path d="M35.562 8.85099C35.7508 8.71136 35.8758 8.65972 35.9387 8.566C36.6177 7.56277 36.0961 6.30132 34.9106 6.14638C33.4153 5.95128 31.9142 5.79635 30.4141 5.65098C29.5891 5.57065 28.7594 5.54483 27.9316 5.49414C28.6927 5.62803 29.4604 5.66724 30.2243 5.74662C31.8188 5.91207 33.4115 6.089 35.0032 6.28314C35.5115 6.34531 35.7489 6.61596 35.7547 7.12379C35.7585 7.50156 35.685 7.88028 35.644 8.25804C35.6269 8.4168 35.6011 8.57556 35.5639 8.85099H35.562Z" fill="url(#paint3_linear_1511_1157)"/>
  <path d="M34.5166 12.9031C34.5862 12.9518 34.5967 12.9643 34.6043 12.9633C35.0516 12.8973 35.4989 12.8342 35.9452 12.7634C36.4869 12.6774 36.7012 12.3579 36.588 11.8052C36.4977 11.3652 36.237 11.1787 35.806 11.2457C35.6257 11.2734 35.4464 11.304 35.2671 11.3327C35.3206 11.3758 35.3654 11.3729 35.4102 11.3681C36.2017 11.2772 36.2494 11.3126 36.3744 12.1074C36.3782 12.1313 36.3801 12.1552 36.3868 12.1781C36.4507 12.4019 36.361 12.5014 36.1369 12.5463C35.6133 12.6506 35.0936 12.7759 34.5166 12.905V12.9031Z" fill="url(#paint4_linear_1511_1157)"/>
  <path d="M6.57422 16.0566C7.7501 16.6209 9.06904 16.6439 10.016 17.54C9.10623 16.5702 7.89792 16.2833 6.57422 16.0566Z" fill="url(#paint5_linear_1511_1157)"/>
  <path d="M13.0779 17.9409C13.0178 16.9902 12.3826 15.6198 11.4795 15.658C12.3759 16.1859 12.725 17.061 13.0779 17.9409Z" fill="url(#paint6_linear_1511_1157)"/>
  <path d="M29.874 17.016C30.2736 15.9487 30.9336 15.0622 31.7804 14.3066C30.6742 14.8747 30.2441 15.9229 29.874 17.016Z" fill="url(#paint7_linear_1511_1157)"/>
  <path d="M35.2158 9.89035C35.6555 9.90756 36.0903 9.91808 36.2229 10.5292L36.3497 10.4316C36.3431 10.1658 36.3373 9.89895 36.3297 9.59961C35.9149 9.70768 35.5658 9.79853 35.2158 9.88939V9.89035Z" fill="url(#paint8_linear_1511_1157)"/>
  <path d="M17.2209 18.1164L17.3087 18.0734C16.9157 17.3972 16.5219 16.7211 16.129 16.0449L16.0498 16.0918C16.4399 16.767 16.8299 17.4412 17.22 18.1164H17.2209Z" fill="url(#paint9_linear_1511_1157)"/>
  <path d="M25.6333 8.12363C25.8393 8.18675 25.9013 7.9687 25.9709 7.76213C26.0548 7.50965 25.9461 7.31837 25.7239 7.24664C25.5999 7.20648 25.434 7.29446 25.2871 7.32507C25.4435 7.35376 25.6009 7.29829 25.7058 7.34898C25.7954 7.39297 25.8879 7.57085 25.8689 7.6684C25.8383 7.82716 25.7191 7.9687 25.6333 8.12363Z" fill="url(#paint10_linear_1511_1157)"/>
  <path d="M26.2739 5.60581C26.0764 5.51591 25.9563 5.41358 25.8504 5.42697C25.7455 5.44036 25.654 5.56851 25.5996 5.6125C25.7827 5.61059 25.9706 5.60868 26.2739 5.60677V5.60581Z" fill="url(#paint11_linear_1511_1157)"/>
  <path d="M19.935 23.1603C19.5192 23.2502 19.2293 23.1804 19.1282 22.9155C19.0538 22.7185 19.0138 22.5081 18.9442 22.2508C18.9003 22.4478 18.8679 22.5932 18.8345 22.7385C18.7229 23.2454 18.638 23.3248 18.1116 23.3363C16.0879 23.3784 13.7447 23.5639 11.7267 23.3535C9.55617 23.1278 8.23437 22.9365 5.94555 22.2957C4.4683 21.8816 2.2758 21.0324 1.48138 19.5873C1.43275 19.5031 1.38697 19.4161 1.34596 19.3281C1.3431 19.3214 1.34024 19.3147 1.33642 19.3081L1.32689 19.287C0.894871 18.3373 0.805226 17.1926 1.19528 16.2132C1.21912 16.1539 1.26108 16.1013 1.29446 16.0449C1.32212 16.0468 1.34787 16.0497 1.37457 16.0516C1.38506 16.1712 1.4089 16.2907 1.40604 16.4093C1.39841 16.8263 1.37839 17.2452 1.3698 17.6621C1.34596 18.9542 2.07362 19.7049 3.17607 20.1936C7.21775 21.984 11.4292 22.5999 15.8132 22.0605C17.0788 21.9055 18.3453 21.7592 19.6108 21.6052C20.0743 21.5469 20.0819 21.546 20.1372 22.0222C20.163 22.247 20.1763 22.4746 20.1982 22.7003C20.2192 22.9193 20.2087 23.1029 19.9331 23.1603H19.935Z" fill="url(#paint12_linear_1511_1157)"/>
  <path d="M28.869 22.3673C28.8404 22.7747 28.6191 22.9019 28.2272 22.8598C27.8514 22.8187 27.4681 22.8484 27.0923 22.8053C26.9817 22.7929 26.8091 22.6475 26.7986 22.549C26.7566 22.1617 26.7547 21.7677 26.7719 21.3775C26.7757 21.2943 26.9254 21.1518 27.0103 21.1498C27.5901 21.1384 28.1719 21.1594 28.7517 21.1661C28.9806 21.169 29.035 21.2962 29.0044 21.4932C28.9596 21.7858 28.9138 22.0785 28.8681 22.3711V22.3663L28.869 22.3673Z" fill="url(#paint13_linear_1511_1157)"/>
  <path d="M22.5281 8.00459C21.8319 7.55414 21.1977 7.13908 20.5597 6.73262C20.3957 6.62838 20.3814 6.52414 20.5159 6.39216C20.6942 6.21714 20.8535 6.01248 21.0585 5.87859C21.1863 5.79538 21.4133 5.75235 21.5449 5.80877C21.9569 5.98666 22.3441 6.17315 22.2964 6.77949C22.2659 7.16395 22.4375 7.56562 22.5281 8.00459Z" fill="url(#paint14_linear_1511_1157)"/>
  <path d="M21.4719 21.7306C21.4804 22.028 21.4871 22.3245 21.4976 22.622C21.5062 22.8515 21.4375 23.037 21.1839 23.0581C20.9216 23.0801 20.5792 23.1833 20.4543 22.8706C20.3198 22.5359 20.296 22.1562 20.2302 21.7947C20.2225 21.7526 20.2426 21.6675 20.2626 21.6627C20.5687 21.5977 20.8758 21.5212 21.1858 21.4992C21.2754 21.4934 21.3774 21.6522 21.4738 21.7364V21.7316L21.4719 21.7306Z" fill="url(#paint15_linear_1511_1157)"/>
  <path d="M22.8105 21.49C23.0242 21.4317 23.2302 21.3485 23.4428 21.3245C23.646 21.3016 23.9054 21.27 23.9597 21.5636C24.0179 21.8773 24.0589 22.1987 24.0599 22.5162C24.0599 22.6176 23.9283 22.7706 23.8224 22.8127C23.1253 23.0929 22.9565 22.9858 22.863 22.2293C22.8373 22.0189 22.8325 21.8056 22.8105 21.49Z" fill="url(#paint16_linear_1511_1157)"/>
  <path d="M21.4717 21.7344C21.5661 21.4389 21.8979 21.3127 22.3805 21.3748C22.6924 21.415 22.6494 21.6302 22.6571 21.8521C22.6618 22.0118 22.7505 22.1677 22.7744 22.3293C22.8173 22.6153 22.8011 22.8802 22.4473 22.9777C22.0648 23.0829 21.7902 22.9844 21.67 22.6296C21.5718 22.3408 21.5356 22.03 21.4707 21.7297V21.7344H21.4717Z" fill="url(#paint17_linear_1511_1157)"/>
  <path d="M25.8434 22.7532C25.7928 22.6967 25.6488 22.5743 25.5554 22.4204C25.4781 22.2922 25.4285 22.1287 25.4257 21.9795C25.4209 21.7423 25.3885 21.3626 25.5058 21.2985C25.728 21.1771 26.0541 21.2 26.3259 21.2402C26.4308 21.2555 26.5662 21.4736 26.5806 21.6103C26.613 21.9154 26.5939 22.2291 26.5634 22.5351C26.5348 22.8259 26.3164 22.9081 25.8424 22.7522L25.8434 22.7532Z" fill="url(#paint18_linear_1511_1157)"/>
  <path d="M24.2175 22.8923C24.2175 22.7833 24.228 22.6733 24.2184 22.5643C24.1908 22.2449 24.1603 21.9255 24.1231 21.607C24.1002 21.4148 24.1765 21.3191 24.3663 21.2923C25.3552 21.1556 25.1893 21.1307 25.2932 21.9685C25.299 22.0154 25.2999 22.0632 25.3028 22.111C25.3419 22.6829 24.9366 22.9918 24.3939 22.8034L24.2175 22.8923Z" fill="url(#paint19_linear_1511_1157)"/>
  <path d="M20.8317 9.41395C20.6705 9.28006 20.5179 9.13565 20.3472 9.01515C19.9705 8.74736 19.59 8.48436 19.2028 8.23188C18.9682 8.07886 18.9176 7.92489 19.1436 7.72787C19.3144 7.57964 19.4746 7.4161 19.6624 7.29655C19.733 7.2516 19.94 7.27456 19.9629 7.32429C20.0916 7.59781 20.1822 7.89046 20.2881 8.17545C20.3224 8.26727 20.3586 8.36099 20.4063 8.44611C20.5732 8.74449 20.7449 9.04001 20.9146 9.33553L20.8297 9.41395H20.8317Z" fill="url(#paint20_linear_1511_1157)"/>
  <path d="M18.9455 10.1911C18.5821 9.95489 18.2111 9.72824 17.8564 9.47862C17.5293 9.24814 17.5417 9.09034 17.8859 8.86846C17.9947 8.79864 18.111 8.71927 18.2331 8.69918C18.3332 8.68292 18.5163 8.71927 18.543 8.78239C18.7271 9.23092 18.8806 9.69189 19.0447 10.15L18.9464 10.1911H18.9455Z" fill="url(#paint21_linear_1511_1157)"/>
  <path d="M16.1287 11.6678C16.0076 11.7797 15.9141 11.9193 15.7901 11.9576C15.7282 11.9767 15.5861 11.8275 15.5193 11.729C15.2504 11.3321 15.4068 10.8721 15.8684 10.7219C15.9265 10.7028 16.0896 10.8118 16.0982 10.875C16.1316 11.1284 16.122 11.3866 16.1297 11.6678H16.1287Z" fill="url(#paint22_linear_1511_1157)"/>
  <path d="M14.8013 11.9387C14.7431 12.2342 14.7097 12.5383 14.6163 12.8224C14.5781 12.94 14.4141 13.0921 14.3073 13.093C14.1919 13.093 14.0174 12.9553 13.9754 12.8396C13.9287 12.7114 13.9496 12.4848 14.0374 12.3968C14.231 12.2007 14.4847 12.064 14.7135 11.9023L14.8013 11.9396V11.9387Z" fill="url(#paint23_linear_1511_1157)"/>
  <path d="M17.2324 10.9422C17.0389 10.7624 16.8243 10.5999 16.6621 10.3942C16.6002 10.3158 16.6173 10.115 16.6755 10.0155C16.7384 9.90841 16.8929 9.85581 17.0074 9.7793C17.0751 9.88258 17.1705 9.97822 17.2029 10.092C17.2763 10.3455 17.3183 10.6075 17.3726 10.8667C17.3259 10.8925 17.2782 10.9174 17.2315 10.9432L17.2324 10.9422Z" fill="url(#paint24_linear_1511_1157)"/>
  <path d="M36.7578 7.68212C36.6949 7.21828 36.63 6.75253 36.5709 6.28582C36.5661 6.24565 36.5909 6.19305 36.6176 6.15862C36.8866 5.80381 37.6581 5.64601 38.0539 5.86215C38.484 6.09646 38.4725 6.81852 38.01 7.08248C37.6257 7.30244 37.2099 7.46885 36.7569 7.68212H36.7578Z" fill="white"/>
  <path d="M37.1441 18.0291C37.1441 17.8751 37.1498 17.7469 37.1441 17.6197C37.105 16.5505 37.0812 15.4803 37.0163 14.413C36.9829 13.8536 36.9429 13.8488 36.3945 13.8239C36.4117 13.8096 36.4241 13.7885 36.4413 13.7847C37.4836 13.5619 37.2862 13.6106 37.3911 14.4408C37.5208 15.4679 37.5637 16.5056 37.6582 17.5375C37.6906 17.8942 37.5523 18.0501 37.1441 18.03V18.0291Z" fill="white"/>
  <path d="M35.562 8.85099C35.5992 8.57556 35.6249 8.41776 35.6421 8.25804C35.684 7.88028 35.7575 7.50156 35.7527 7.12379C35.747 6.61596 35.5095 6.34531 35.0012 6.28314C33.4105 6.089 31.8169 5.91207 30.2223 5.74662C29.4584 5.66724 28.6907 5.62803 27.9297 5.49414C28.7575 5.54483 29.5872 5.57161 30.4121 5.65098C31.9132 5.79731 33.4143 5.95128 34.9087 6.14638C36.0951 6.30132 36.6158 7.56277 35.9368 8.566C35.8729 8.65972 35.7489 8.71136 35.5601 8.85099H35.562Z" fill="white"/>
  <path d="M34.5166 12.903C35.0945 12.7739 35.6133 12.6486 36.1369 12.5444C36.361 12.4994 36.4507 12.4 36.3868 12.1762C36.3801 12.1532 36.3782 12.1293 36.3744 12.1054C36.2494 11.3116 36.2017 11.2753 35.4102 11.3661C35.3654 11.3709 35.3206 11.3748 35.2671 11.3308C35.4464 11.3021 35.6267 11.2715 35.806 11.2437C36.237 11.1768 36.4977 11.3633 36.588 11.8032C36.7012 12.3547 36.4869 12.6741 35.9452 12.7615C35.4989 12.8323 35.0516 12.8954 34.6043 12.9614C34.5967 12.9623 34.5862 12.9499 34.5166 12.9011V12.903Z" fill="white"/>
  <path d="M6.57422 16.0566C7.89792 16.2833 9.10528 16.5693 10.016 17.54C9.06999 16.6448 7.7501 16.6219 6.57422 16.0566Z" fill="white"/>
  <path d="M13.0779 17.9409C12.724 17.061 12.3759 16.1859 11.4795 15.658C12.3836 15.6198 13.0187 16.9902 13.0779 17.9409Z" fill="white"/>
  <path d="M29.874 17.016C30.2441 15.9229 30.6732 14.8747 31.7804 14.3066C30.9336 15.0622 30.2736 15.9497 29.874 17.016Z" fill="white"/>
  <path d="M35.2158 9.89037C35.5658 9.79951 35.9158 9.70866 36.3297 9.60059C36.3364 9.89993 36.3431 10.1658 36.3497 10.4326L36.2229 10.5302C36.0903 9.9181 35.6545 9.90854 35.2158 9.89132V9.89037Z" fill="white"/>
  <path d="M17.2209 18.1164C16.8309 17.4412 16.4408 16.767 16.0508 16.0918L16.1299 16.0449C16.5229 16.7211 16.9167 17.3972 17.3096 18.0734L17.2219 18.1164H17.2209Z" fill="white"/>
  <path d="M25.6333 8.12363C25.7182 7.9687 25.8383 7.82716 25.8689 7.6684C25.887 7.57085 25.7954 7.39201 25.7058 7.34898C25.6009 7.29733 25.4435 7.35376 25.2871 7.32507C25.434 7.29446 25.5999 7.20648 25.7239 7.24664C25.9461 7.31933 26.0558 7.5106 25.9709 7.76213C25.9022 7.9687 25.8393 8.18675 25.6333 8.12363Z" fill="white"/>
  <path d="M26.2739 5.60481C25.9706 5.60768 25.7827 5.6096 25.5996 5.61055C25.654 5.56656 25.7455 5.43841 25.8504 5.42502C25.9563 5.41163 26.0755 5.51396 26.2739 5.60386V5.60481Z" fill="white"/>
  <defs>
    <linearGradient id="paint0_linear_1511_1157" x1="20.4979" y1="0.6875" x2="20.4979" y2="22.8732" gradientUnits="userSpaceOnUse">
      <stop offset="0.25" stop-color="#2535EA"/>
      <stop offset="1" stop-color="#4FBCEB"/>
    </linearGradient>
    <linearGradient id="paint1_linear_1511_1157" x1="37.4693" y1="5.76367" x2="37.4693" y2="7.68212" gradientUnits="userSpaceOnUse">
      <stop offset="0.25" stop-color="#2535EA"/>
      <stop offset="1" stop-color="#4FBCEB"/>
    </linearGradient>
    <linearGradient id="paint2_linear_1511_1157" x1="37.0286" y1="13.6709" x2="37.0286" y2="18.0313" gradientUnits="userSpaceOnUse">
      <stop offset="0.25" stop-color="#2535EA"/>
      <stop offset="1" stop-color="#4FBCEB"/>
    </linearGradient>
    <linearGradient id="paint3_linear_1511_1157" x1="32.0859" y1="5.49414" x2="32.0859" y2="8.85099" gradientUnits="userSpaceOnUse">
      <stop offset="0.25" stop-color="#2535EA"/>
      <stop offset="1" stop-color="#4FBCEB"/>
    </linearGradient>
    <linearGradient id="paint4_linear_1511_1157" x1="35.567" y1="11.2324" x2="35.567" y2="12.9634" gradientUnits="userSpaceOnUse">
      <stop offset="0.25" stop-color="#2535EA"/>
      <stop offset="1" stop-color="#4FBCEB"/>
    </linearGradient>
    <linearGradient id="paint5_linear_1511_1157" x1="8.29513" y1="16.0566" x2="8.29513" y2="17.54" gradientUnits="userSpaceOnUse">
      <stop offset="0.25" stop-color="#2535EA"/>
      <stop offset="1" stop-color="#4FBCEB"/>
    </linearGradient>
    <linearGradient id="paint6_linear_1511_1157" x1="12.2787" y1="15.6572" x2="12.2787" y2="17.9409" gradientUnits="userSpaceOnUse">
      <stop offset="0.25" stop-color="#2535EA"/>
      <stop offset="1" stop-color="#4FBCEB"/>
    </linearGradient>
    <linearGradient id="paint7_linear_1511_1157" x1="30.8272" y1="14.3066" x2="30.8272" y2="17.016" gradientUnits="userSpaceOnUse">
      <stop offset="0.25" stop-color="#2535EA"/>
      <stop offset="1" stop-color="#4FBCEB"/>
    </linearGradient>
    <linearGradient id="paint8_linear_1511_1157" x1="35.7828" y1="9.59961" x2="35.7828" y2="10.5292" gradientUnits="userSpaceOnUse">
      <stop offset="0.25" stop-color="#2535EA"/>
      <stop offset="1" stop-color="#4FBCEB"/>
    </linearGradient>
    <linearGradient id="paint9_linear_1511_1157" x1="16.6792" y1="16.0449" x2="16.6792" y2="18.1164" gradientUnits="userSpaceOnUse">
      <stop offset="0.25" stop-color="#2535EA"/>
      <stop offset="1" stop-color="#4FBCEB"/>
    </linearGradient>
    <linearGradient id="paint10_linear_1511_1157" x1="25.6432" y1="7.23633" x2="25.6432" y2="8.13472" gradientUnits="userSpaceOnUse">
      <stop offset="0.25" stop-color="#2535EA"/>
      <stop offset="1" stop-color="#4FBCEB"/>
    </linearGradient>
    <linearGradient id="paint11_linear_1511_1157" x1="25.9367" y1="5.42578" x2="25.9367" y2="5.6125" gradientUnits="userSpaceOnUse">
      <stop offset="0.25" stop-color="#2535EA"/>
      <stop offset="1" stop-color="#4FBCEB"/>
    </linearGradient>
    <linearGradient id="paint12_linear_1511_1157" x1="10.5762" y1="16.0449" x2="10.5762" y2="23.452" gradientUnits="userSpaceOnUse">
      <stop offset="0.25" stop-color="#2535EA"/>
      <stop offset="1" stop-color="#4FBCEB"/>
    </linearGradient>
    <linearGradient id="paint13_linear_1511_1157" x1="27.887" y1="21.1465" x2="27.887" y2="22.8675" gradientUnits="userSpaceOnUse">
      <stop offset="0.25" stop-color="#2535EA"/>
      <stop offset="1" stop-color="#4FBCEB"/>
    </linearGradient>
    <linearGradient id="paint14_linear_1511_1157" x1="21.4765" y1="5.7832" x2="21.4765" y2="8.00459" gradientUnits="userSpaceOnUse">
      <stop offset="0.25" stop-color="#2535EA"/>
      <stop offset="1" stop-color="#4FBCEB"/>
    </linearGradient>
    <linearGradient id="paint15_linear_1511_1157" x1="20.8634" y1="21.499" x2="20.8634" y2="23.092" gradientUnits="userSpaceOnUse">
      <stop offset="0.25" stop-color="#2535EA"/>
      <stop offset="1" stop-color="#4FBCEB"/>
    </linearGradient>
    <linearGradient id="paint16_linear_1511_1157" x1="23.4352" y1="21.3105" x2="23.4352" y2="22.9541" gradientUnits="userSpaceOnUse">
      <stop offset="0.25" stop-color="#2535EA"/>
      <stop offset="1" stop-color="#4FBCEB"/>
    </linearGradient>
    <linearGradient id="paint17_linear_1511_1157" x1="22.131" y1="21.3594" x2="22.131" y2="23.0176" gradientUnits="userSpaceOnUse">
      <stop offset="0.25" stop-color="#2535EA"/>
      <stop offset="1" stop-color="#4FBCEB"/>
    </linearGradient>
    <linearGradient id="paint18_linear_1511_1157" x1="26.0077" y1="21.208" x2="26.0077" y2="22.8298" gradientUnits="userSpaceOnUse">
      <stop offset="0.25" stop-color="#2535EA"/>
      <stop offset="1" stop-color="#4FBCEB"/>
    </linearGradient>
    <linearGradient id="paint19_linear_1511_1157" x1="24.7123" y1="21.2197" x2="24.7123" y2="22.8923" gradientUnits="userSpaceOnUse">
      <stop offset="0.25" stop-color="#2535EA"/>
      <stop offset="1" stop-color="#4FBCEB"/>
    </linearGradient>
    <linearGradient id="paint20_linear_1511_1157" x1="19.9563" y1="7.27246" x2="19.9563" y2="9.41395" gradientUnits="userSpaceOnUse">
      <stop offset="0.25" stop-color="#2535EA"/>
      <stop offset="1" stop-color="#4FBCEB"/>
    </linearGradient>
    <linearGradient id="paint21_linear_1511_1157" x1="18.3319" y1="8.69531" x2="18.3319" y2="10.1911" gradientUnits="userSpaceOnUse">
      <stop offset="0.25" stop-color="#2535EA"/>
      <stop offset="1" stop-color="#4FBCEB"/>
    </linearGradient>
    <linearGradient id="paint22_linear_1511_1157" x1="15.7587" y1="10.7197" x2="15.7587" y2="11.9592" gradientUnits="userSpaceOnUse">
      <stop offset="0.25" stop-color="#2535EA"/>
      <stop offset="1" stop-color="#4FBCEB"/>
    </linearGradient>
    <linearGradient id="paint23_linear_1511_1157" x1="14.3762" y1="11.9023" x2="14.3762" y2="13.093" gradientUnits="userSpaceOnUse">
      <stop offset="0.25" stop-color="#2535EA"/>
      <stop offset="1" stop-color="#4FBCEB"/>
    </linearGradient>
    <linearGradient id="paint24_linear_1511_1157" x1="16.9978" y1="9.7793" x2="16.9978" y2="10.9432" gradientUnits="userSpaceOnUse">
      <stop offset="0.25" stop-color="#2535EA"/>
      <stop offset="1" stop-color="#4FBCEB"/>
    </linearGradient>
  </defs>
</svg>