<svg width="90" height="90" viewBox="0 0 90 90" fill="none" xmlns="http://www.w3.org/2000/svg">
<circle cx="45" cy="45" r="44" fill="white" stroke="url(#paint0_linear_1_1783)" stroke-width="2"/>
<path d="M52.87 54.3731C53.2715 53.0906 52.9587 53.3067 54.2777 53.2465C55.9828 53.168 57.689 53.0992 59.3407 52.643C60.323 52.3714 61.2719 51.9783 62.2723 51.6273C62.1741 51.2744 62.1188 50.9952 62.0082 50.7389C61.9786 50.67 61.7698 50.627 61.662 50.6518C61.0125 50.802 60.3707 50.9904 59.7203 51.1386C57.5841 51.6245 55.4145 51.788 53.2296 51.8272C49.4034 51.8961 45.5954 52.2078 41.7959 52.6688C39.4423 52.9538 37.081 53.1814 34.7034 53.0236C33.3206 52.9318 31.9588 52.7052 30.6446 52.2538C29.4859 51.8559 28.3291 51.4494 27.1828 51.02C26.8881 50.9091 26.6201 50.7111 26.3626 50.5218C26.2195 50.4175 25.922 50.0866 25.8047 49.947C25.8266 49.924 26.0498 50.0646 26.0708 50.0417L26.8165 50.4223L26.8537 50.3802C26.6792 50.1842 26.5047 49.9891 26.3302 49.793C25.8762 49.2833 25.758 48.7075 25.9954 48.062C26.086 47.8152 26.149 47.5542 26.2691 47.3237C26.7832 46.3396 27.5966 46.0163 28.7306 46.2765C30.0466 46.5796 31.3847 46.7078 32.736 46.6571C33.4122 46.6313 34.0464 46.4505 34.6472 46.1225C34.8684 46.002 35.1469 45.9924 35.392 45.9102C35.6705 45.8164 35.9556 45.7265 36.2103 45.586C36.5707 45.3861 36.9055 45.1393 37.1649 44.9691C37.5025 45.3201 37.8143 45.6108 38.0823 45.9379C38.2101 46.0938 38.2568 46.3166 38.3522 46.5375C38.5601 46.2698 38.9111 46.0833 38.6297 45.6539C38.583 45.5821 38.6755 45.3985 38.7356 45.2828C38.8548 45.0552 39.0093 44.8467 39.1237 44.6181C39.2191 44.4278 39.3593 44.3742 39.4785 44.5292C39.736 44.861 39.9611 45.2197 40.1852 45.5764C40.2443 45.6701 40.25 45.7973 40.2796 45.9082C40.7269 45.8117 40.8823 45.5697 40.7431 45.1862C40.6754 44.9987 40.5628 44.8247 40.4579 44.6525C40.2367 44.2891 40.4474 43.524 40.8385 43.3605C40.9252 43.3241 41.0797 43.3567 41.1617 43.416C41.5985 43.7335 41.9466 44.116 41.9695 44.7004C41.9714 44.7597 41.9628 44.8342 41.9934 44.8744C42.0658 44.9691 42.1593 45.0475 42.2432 45.1336C42.3252 45.0427 42.4502 44.9634 42.4778 44.8582C42.515 44.7157 42.5074 44.5445 42.4654 44.401C42.3462 44.0013 42.2022 43.6091 42.063 43.2161C41.98 42.9799 41.8722 42.7513 41.8055 42.5103C41.7511 42.3142 41.857 42.1698 42.0534 42.275C42.6914 42.6155 43.3705 42.9158 43.6852 43.6484C43.7653 43.8348 43.8473 44.0232 43.956 44.1925C44.0037 44.2671 44.1344 44.3503 44.2011 44.3322C44.2784 44.3111 44.3804 44.1801 44.3766 44.1017C44.3661 43.8788 44.3461 43.6407 44.2602 43.4389C44.0047 42.8345 43.7128 42.2454 43.442 41.6467C43.3705 41.4889 43.3218 41.3206 43.235 41.0834C43.4096 41.1178 43.5164 41.1168 43.6013 41.1589C44.5187 41.6161 45.3551 42.1478 45.5496 43.2802C45.562 43.3509 45.7384 43.4666 45.7775 43.4456C45.8948 43.3844 46.0532 43.2725 46.0646 43.1654C46.0818 43.0133 45.9959 42.8431 45.932 42.6891C45.5687 41.8179 45.1958 40.9514 44.8325 40.0792C44.7609 39.908 44.7218 39.7244 44.6417 39.4585C44.8038 39.5465 44.8859 39.5819 44.9593 39.6316C46.0102 40.3546 47.0765 41.0566 47.9405 42.0149C47.9882 42.0675 48.0387 42.1354 48.0998 42.1545C48.2027 42.187 48.3715 42.2348 48.4116 42.1889C48.4784 42.1115 48.5203 41.9336 48.4755 41.8532C48.3611 41.6476 48.2142 41.4497 48.0416 41.2899C47.2615 40.565 46.9248 39.6134 46.6578 38.6246C46.6425 38.57 46.6483 38.5098 46.6416 38.4036C46.776 38.4132 46.8962 38.3988 46.9983 38.4333C47.4055 38.5739 47.7307 38.4275 47.9977 38.1397C48.2161 37.9044 48.3944 37.6328 48.6004 37.3851C48.7854 37.1623 48.9829 36.949 49.1612 36.7482C48.7997 36.796 48.5365 37.0485 48.3181 37.3535C47.8012 38.0737 47.6019 38.3692 46.385 37.7629C45.4876 37.3162 45.4934 37.3067 45.9492 36.4153C46.2429 35.8425 46.5348 35.2677 46.8266 34.6939C47.2338 33.8905 47.6782 33.6973 48.5518 33.9489C48.6281 33.9709 48.7025 33.9986 48.7997 33.9737C48.6042 33.8724 48.4097 33.7681 48.2123 33.6715C47.9834 33.5596 47.8499 33.4066 47.9357 33.1302C48.0301 32.8261 48.2371 32.6339 48.5442 32.7008C48.9724 32.7945 49.4091 32.9093 49.7992 33.1044C50.7042 33.5558 51.5988 34.033 52.4666 34.5504C53.2763 35.0334 53.3335 35.2706 53.0608 36.181C53.0245 36.3034 53.0007 36.4287 52.9606 36.5951C53.3888 36.6277 53.7779 36.6449 54.1642 36.6898C55.7711 36.8754 57.3781 37.0676 58.9841 37.2617C59.1491 37.2818 59.3159 37.3153 59.4714 37.3717C59.9397 37.5419 60.3583 37.5209 60.8409 37.3115C61.9891 36.8132 63.0839 37.7064 62.898 38.9488C62.8703 39.1343 62.7549 39.3313 62.6243 39.4709C62.4736 39.6335 62.28 39.7904 62.0749 39.8602C61.2138 40.1547 60.9515 40.8405 60.9858 41.6333C61.0259 42.56 61.1708 43.4839 61.3025 44.4048C61.3215 44.5416 61.4941 44.709 61.6334 44.7644C61.9052 44.8715 61.951 45.0255 61.9119 45.2923C61.8718 45.5678 61.8632 45.8556 61.8937 46.1311C62.0053 47.1401 62.0826 48.1586 62.2809 49.1513C62.4402 49.9432 62.7206 50.7178 63.0143 51.4734C63.3119 52.2404 63.2699 52.621 62.6109 53.1307C61.4598 54.023 60.1333 54.5576 58.7027 54.681C56.9976 54.8283 55.279 54.8312 53.5662 54.8723C53.036 54.8847 52.9263 54.768 52.8643 54.3664V54.3712L52.87 54.3731Z" fill="url(#paint1_linear_1_1783)"/>
<path d="M60.7578 39.6821C61.2099 39.4679 61.6257 39.3024 62.011 39.0825C62.4726 38.8176 62.484 38.0965 62.0549 37.8621C61.6591 37.646 60.8876 37.8038 60.6186 38.1586C60.5919 38.1931 60.5671 38.2457 60.5719 38.2858C60.631 38.7525 60.6959 39.2192 60.7588 39.6821H60.7578Z" fill="url(#paint2_linear_1_1783)"/>
<path d="M61.1441 50.0296C61.5523 50.0497 61.6906 49.8928 61.6582 49.5371C61.5637 48.5051 61.5208 47.4675 61.3911 46.4403C61.2862 45.6102 61.4836 45.5624 60.4413 45.7843C60.4241 45.7881 60.4117 45.8091 60.3945 45.8235C60.9429 45.8483 60.9829 45.8531 61.0163 46.4126C61.0812 47.4799 61.105 48.5501 61.1441 49.6193C61.1489 49.7475 61.1441 49.8756 61.1441 50.0286V50.0296Z" fill="url(#paint3_linear_1_1783)"/>
<path d="M59.562 40.851C59.7508 40.7114 59.8758 40.6597 59.9387 40.566C60.6177 39.5628 60.0961 38.3013 58.9106 38.1464C57.4153 37.9513 55.9142 37.7964 54.4141 37.651C53.5891 37.5707 52.7594 37.5448 51.9316 37.4941C52.6927 37.628 53.4604 37.6672 54.2243 37.7466C55.8188 37.9121 57.4115 38.089 59.0032 38.2831C59.5115 38.3453 59.7489 38.616 59.7547 39.1238C59.7585 39.5016 59.685 39.8803 59.644 40.258C59.6269 40.4168 59.6011 40.5756 59.5639 40.851H59.562Z" fill="url(#paint4_linear_1_1783)"/>
<path d="M58.5166 44.9031C58.5862 44.9518 58.5967 44.9643 58.6043 44.9633C59.0516 44.8973 59.4989 44.8342 59.9452 44.7634C60.4869 44.6774 60.7012 44.3579 60.588 43.8052C60.4977 43.3652 60.237 43.1787 59.806 43.2457C59.6257 43.2734 59.4464 43.304 59.2671 43.3327C59.3206 43.3758 59.3654 43.3729 59.4102 43.3681C60.2017 43.2772 60.2494 43.3126 60.3744 44.1074C60.3782 44.1313 60.3801 44.1552 60.3868 44.1781C60.4507 44.4019 60.361 44.5014 60.1369 44.5463C59.6133 44.6506 59.0936 44.7759 58.5166 44.905V44.9031Z" fill="url(#paint5_linear_1_1783)"/>
<path d="M30.5742 48.0566C31.7501 48.6209 33.069 48.6439 34.016 49.54C33.1062 48.5702 31.8979 48.2833 30.5742 48.0566Z" fill="url(#paint6_linear_1_1783)"/>
<path d="M37.0779 49.9409C37.0178 48.9902 36.3826 47.6198 35.4795 47.658C36.3759 48.1859 36.725 49.061 37.0779 49.9409Z" fill="url(#paint7_linear_1_1783)"/>
<path d="M53.874 49.016C54.2736 47.9487 54.9336 47.0622 55.7804 46.3066C54.6742 46.8747 54.2441 47.9229 53.874 49.016Z" fill="url(#paint8_linear_1_1783)"/>
<path d="M59.2158 41.8903C59.6555 41.9076 60.0903 41.9181 60.2229 42.5292L60.3497 42.4316C60.3431 42.1658 60.3373 41.899 60.3297 41.5996C59.9149 41.7077 59.5658 41.7985 59.2158 41.8894V41.8903Z" fill="url(#paint9_linear_1_1783)"/>
<path d="M41.2209 50.1164L41.3087 50.0734C40.9157 49.3972 40.5219 48.7211 40.129 48.0449L40.0498 48.0918C40.4399 48.767 40.8299 49.4412 41.22 50.1164H41.2209Z" fill="url(#paint10_linear_1_1783)"/>
<path d="M49.6333 40.1236C49.8393 40.1868 49.9013 39.9687 49.9709 39.7621C50.0548 39.5096 49.9461 39.3184 49.7239 39.2466C49.5999 39.2065 49.434 39.2945 49.2871 39.3251C49.4435 39.3538 49.6009 39.2983 49.7058 39.349C49.7954 39.393 49.8879 39.5709 49.8689 39.6684C49.8383 39.8272 49.7191 39.9687 49.6333 40.1236Z" fill="url(#paint11_linear_1_1783)"/>
<path d="M50.2739 37.6058C50.0764 37.5159 49.9563 37.4136 49.8504 37.427C49.7455 37.4404 49.654 37.5685 49.5996 37.6125C49.7827 37.6106 49.9706 37.6087 50.2739 37.6068V37.6058Z" fill="url(#paint12_linear_1_1783)"/>
<path d="M43.935 55.1603C43.5192 55.2502 43.2293 55.1804 43.1282 54.9155C43.0538 54.7185 43.0138 54.5081 42.9442 54.2508C42.9003 54.4478 42.8679 54.5932 42.8345 54.7385C42.7229 55.2454 42.638 55.3248 42.1116 55.3363C40.0879 55.3784 37.7447 55.5639 35.7267 55.3535C33.5562 55.1278 32.2344 54.9365 29.9455 54.2957C28.4683 53.8816 26.2758 53.0324 25.4814 51.5873C25.4327 51.5031 25.387 51.4161 25.346 51.3281C25.3431 51.3214 25.3402 51.3147 25.3364 51.3081L25.3269 51.287C24.8949 50.3373 24.8052 49.1926 25.1953 48.2132C25.2191 48.1539 25.2611 48.1013 25.2945 48.0449C25.3221 48.0468 25.3479 48.0497 25.3746 48.0516C25.3851 48.1712 25.4089 48.2907 25.406 48.4093C25.3984 48.8263 25.3784 49.2452 25.3698 49.6621C25.346 50.9542 26.0736 51.7049 27.1761 52.1936C31.2178 53.984 35.4292 54.5999 39.8132 54.0605C41.0788 53.9055 42.3453 53.7592 43.6108 53.6052C44.0743 53.5469 44.0819 53.546 44.1372 54.0222C44.163 54.247 44.1763 54.4746 44.1982 54.7003C44.2192 54.9193 44.2087 55.1029 43.9331 55.1603H43.935Z" fill="url(#paint13_linear_1_1783)"/>
<path d="M52.869 54.3673C52.8404 54.7747 52.6191 54.9019 52.2272 54.8598C51.8514 54.8187 51.4681 54.8484 51.0923 54.8053C50.9817 54.7929 50.8091 54.6475 50.7986 54.549C50.7566 54.1617 50.7547 53.7677 50.7719 53.3775C50.7757 53.2943 50.9254 53.1518 51.0103 53.1498C51.5901 53.1384 52.1719 53.1594 52.7517 53.1661C52.9806 53.169 53.035 53.2962 53.0044 53.4932C52.9596 53.7858 52.9138 54.0785 52.8681 54.3711V54.3663L52.869 54.3673Z" fill="url(#paint14_linear_1_1783)"/>
<path d="M46.5281 40.0046C45.8319 39.5541 45.1977 39.1391 44.5597 38.7326C44.3957 38.6284 44.3814 38.5241 44.5159 38.3922C44.6942 38.2171 44.8535 38.0125 45.0585 37.8786C45.1863 37.7954 45.4133 37.7523 45.5449 37.8088C45.9569 37.9867 46.3441 38.1731 46.2964 38.7795C46.2659 39.1639 46.4375 39.5656 46.5281 40.0046Z" fill="url(#paint15_linear_1_1783)"/>
<path d="M45.4719 53.7306C45.4804 54.028 45.4871 54.3245 45.4976 54.622C45.5062 54.8515 45.4375 55.037 45.1839 55.0581C44.9216 55.0801 44.5792 55.1833 44.4543 54.8706C44.3198 54.5359 44.296 54.1562 44.2302 53.7947C44.2225 53.7526 44.2426 53.6675 44.2626 53.6627C44.5687 53.5977 44.8758 53.5212 45.1858 53.4992C45.2754 53.4934 45.3774 53.6522 45.4738 53.7364V53.7316L45.4719 53.7306Z" fill="url(#paint16_linear_1_1783)"/>
<path d="M46.8105 53.49C47.0242 53.4317 47.2302 53.3485 47.4428 53.3245C47.646 53.3016 47.9054 53.27 47.9597 53.5636C48.0179 53.8773 48.0589 54.1987 48.0599 54.5162C48.0599 54.6176 47.9283 54.7706 47.8224 54.8127C47.1253 55.0929 46.9565 54.9858 46.863 54.2293C46.8373 54.0189 46.8325 53.8056 46.8105 53.49Z" fill="url(#paint17_linear_1_1783)"/>
<path d="M45.4717 53.7344C45.5661 53.4389 45.8979 53.3127 46.3805 53.3748C46.6924 53.415 46.6494 53.6302 46.6571 53.8521C46.6618 54.0118 46.7505 54.1677 46.7744 54.3293C46.8173 54.6153 46.8011 54.8802 46.4473 54.9777C46.0648 55.0829 45.7902 54.9844 45.67 54.6296C45.5718 54.3408 45.5356 54.03 45.4707 53.7297V53.7344H45.4717Z" fill="url(#paint18_linear_1_1783)"/>
<path d="M49.8434 54.7532C49.7928 54.6967 49.6488 54.5743 49.5554 54.4204C49.4781 54.2922 49.4285 54.1287 49.4257 53.9795C49.4209 53.7423 49.3885 53.3626 49.5058 53.2985C49.728 53.1771 50.0541 53.2 50.3259 53.2402C50.4308 53.2555 50.5662 53.4736 50.5806 53.6103C50.613 53.9154 50.5939 54.2291 50.5634 54.5351C50.5348 54.8259 50.3164 54.9081 49.8424 54.7522L49.8434 54.7532Z" fill="url(#paint19_linear_1_1783)"/>
<path d="M48.2175 54.8923C48.2175 54.7833 48.228 54.6733 48.2184 54.5643C48.1908 54.2449 48.1603 53.9255 48.1231 53.607C48.1002 53.4148 48.1765 53.3191 48.3663 53.2923C49.3552 53.1556 49.1893 53.1307 49.2932 53.9685C49.299 54.0154 49.2999 54.0632 49.3028 54.111C49.3419 54.6829 48.9366 54.9918 48.3939 54.8034L48.2175 54.8923Z" fill="url(#paint20_linear_1_1783)"/>
<path d="M44.8317 41.414C44.6705 41.2801 44.5179 41.1356 44.3472 41.0151C43.9705 40.7474 43.59 40.4844 43.2028 40.2319C42.9682 40.0789 42.9176 39.9249 43.1436 39.7279C43.3144 39.5796 43.4746 39.4161 43.6624 39.2966C43.733 39.2516 43.94 39.2746 43.9629 39.3243C44.0916 39.5978 44.1822 39.8905 44.2881 40.1755C44.3224 40.2673 44.3586 40.361 44.4063 40.4461C44.5732 40.7445 44.7449 41.04 44.9146 41.3355L44.8297 41.414H44.8317Z" fill="url(#paint21_linear_1_1783)"/>
<path d="M42.9455 42.1911C42.5821 41.9549 42.2111 41.7282 41.8564 41.4786C41.5293 41.2481 41.5417 41.0903 41.8859 40.8685C41.9947 40.7986 42.111 40.7193 42.2331 40.6992C42.3332 40.6829 42.5163 40.7193 42.543 40.7824C42.7271 41.2309 42.8806 41.6919 43.0447 42.15L42.9464 42.1911H42.9455Z" fill="url(#paint22_linear_1_1783)"/>
<path d="M40.1287 43.6678C40.0076 43.7797 39.9141 43.9193 39.7901 43.9576C39.7282 43.9767 39.5861 43.8275 39.5193 43.729C39.2504 43.3321 39.4068 42.8721 39.8684 42.7219C39.9265 42.7028 40.0896 42.8118 40.0982 42.875C40.1316 43.1284 40.122 43.3866 40.1297 43.6678H40.1287Z" fill="url(#paint23_linear_1_1783)"/>
<path d="M38.8013 43.9387C38.7431 44.2342 38.7097 44.5383 38.6163 44.8224C38.5781 44.94 38.4141 45.0921 38.3073 45.093C38.1919 45.093 38.0174 44.9553 37.9754 44.8396C37.9287 44.7114 37.9496 44.4848 38.0374 44.3968C38.231 44.2007 38.4847 44.064 38.7135 43.9023L38.8013 43.9396V43.9387Z" fill="url(#paint24_linear_1_1783)"/>
<path d="M41.2324 42.9422C41.0389 42.7624 40.8243 42.5999 40.6621 42.3942C40.6002 42.3158 40.6173 42.115 40.6755 42.0155C40.7384 41.9084 40.8929 41.8558 41.0074 41.7793C41.0751 41.8826 41.1705 41.9782 41.2029 42.092C41.2763 42.3455 41.3183 42.6075 41.3726 42.8667C41.3259 42.8925 41.2782 42.9174 41.2315 42.9432L41.2324 42.9422Z" fill="url(#paint25_linear_1_1783)"/>
<path d="M60.7578 39.6821C60.6949 39.2183 60.63 38.7525 60.5709 38.2858C60.5661 38.2457 60.5909 38.1931 60.6176 38.1586C60.8866 37.8038 61.6581 37.646 62.0539 37.8621C62.484 38.0965 62.4725 38.8185 62.01 39.0825C61.6257 39.3024 61.2099 39.4688 60.7569 39.6821H60.7578Z" fill="white"/>
<path d="M61.1441 50.0291C61.1441 49.8751 61.1498 49.7469 61.1441 49.6197C61.105 48.5505 61.0812 47.4803 61.0163 46.413C60.9829 45.8536 60.9429 45.8488 60.3945 45.8239C60.4117 45.8096 60.4241 45.7885 60.4413 45.7847C61.4836 45.5619 61.2862 45.6106 61.3911 46.4408C61.5208 47.4679 61.5637 48.5056 61.6582 49.5375C61.6906 49.8942 61.5523 50.0501 61.1441 50.03V50.0291Z" fill="white"/>
<path d="M59.562 40.851C59.5992 40.5756 59.6249 40.4178 59.6421 40.258C59.684 39.8803 59.7575 39.5016 59.7527 39.1238C59.747 38.616 59.5095 38.3453 59.0012 38.2831C57.4105 38.089 55.8169 37.9121 54.2223 37.7466C53.4584 37.6672 52.6907 37.628 51.9297 37.4941C52.7575 37.5448 53.5872 37.5716 54.4121 37.651C55.9132 37.7973 57.4143 37.9513 58.9087 38.1464C60.0951 38.3013 60.6158 39.5628 59.9368 40.566C59.8729 40.6597 59.7489 40.7114 59.5601 40.851H59.562Z" fill="white"/>
<path d="M58.5166 44.903C59.0945 44.7739 59.6133 44.6486 60.1369 44.5444C60.361 44.4994 60.4507 44.4 60.3868 44.1762C60.3801 44.1532 60.3782 44.1293 60.3744 44.1054C60.2494 43.3116 60.2017 43.2753 59.4102 43.3661C59.3654 43.3709 59.3206 43.3748 59.2671 43.3308C59.4464 43.3021 59.6267 43.2715 59.806 43.2437C60.237 43.1768 60.4977 43.3633 60.588 43.8032C60.7012 44.3547 60.4869 44.6741 59.9452 44.7615C59.4989 44.8323 59.0516 44.8954 58.6043 44.9614C58.5967 44.9623 58.5862 44.9499 58.5166 44.9011V44.903Z" fill="white"/>
<path d="M30.5742 48.0566C31.8979 48.2833 33.1053 48.5693 34.016 49.54C33.07 48.6448 31.7501 48.6219 30.5742 48.0566Z" fill="white"/>
<path d="M37.0779 49.9409C36.724 49.061 36.3759 48.1859 35.4795 47.658C36.3836 47.6198 37.0187 48.9902 37.0779 49.9409Z" fill="white"/>
<path d="M53.874 49.016C54.2441 47.9229 54.6732 46.8747 55.7804 46.3066C54.9336 47.0622 54.2736 47.9497 53.874 49.016Z" fill="white"/>
<path d="M59.2158 41.8904C59.5658 41.7995 59.9158 41.7087 60.3297 41.6006C60.3364 41.8999 60.3431 42.1658 60.3497 42.4326L60.2229 42.5302C60.0903 41.9181 59.6545 41.9085 59.2158 41.8913V41.8904Z" fill="white"/>
<path d="M41.2209 50.1164C40.8309 49.4412 40.4408 48.767 40.0508 48.0918L40.1299 48.0449C40.5229 48.7211 40.9167 49.3972 41.3096 50.0734L41.2219 50.1164H41.2209Z" fill="white"/>
<path d="M49.6333 40.1236C49.7182 39.9687 49.8383 39.8272 49.8689 39.6684C49.887 39.5709 49.7954 39.392 49.7058 39.349C49.6009 39.2973 49.4435 39.3538 49.2871 39.3251C49.434 39.2945 49.5999 39.2065 49.7239 39.2466C49.9461 39.3193 50.0558 39.5106 49.9709 39.7621C49.9022 39.9687 49.8393 40.1868 49.6333 40.1236Z" fill="white"/>
<path d="M50.2739 37.6048C49.9706 37.6077 49.7827 37.6096 49.5996 37.6106C49.654 37.5666 49.7455 37.4384 49.8504 37.425C49.9563 37.4116 50.0755 37.514 50.2739 37.6039V37.6048Z" fill="white"/>
<defs>
<linearGradient id="paint0_linear_1_1783" x1="67.9787" y1="2.4543e-06" x2="22.0484" y2="89.9803" gradientUnits="userSpaceOnUse">
<stop stop-color="#44C7FF"/>
<stop offset="1" stop-color="#2730FF"/>
</linearGradient>
<linearGradient id="paint1_linear_1_1783" x1="44.4979" y1="32.6875" x2="44.4979" y2="54.8732" gradientUnits="userSpaceOnUse">
<stop offset="0.25" stop-color="#2535EA"/>
<stop offset="1" stop-color="#4FBCEB"/>
</linearGradient>
<linearGradient id="paint2_linear_1_1783" x1="61.4693" y1="37.7637" x2="61.4693" y2="39.6821" gradientUnits="userSpaceOnUse">
<stop offset="0.25" stop-color="#2535EA"/>
<stop offset="1" stop-color="#4FBCEB"/>
</linearGradient>
<linearGradient id="paint3_linear_1_1783" x1="61.0286" y1="45.6709" x2="61.0286" y2="50.0313" gradientUnits="userSpaceOnUse">
<stop offset="0.25" stop-color="#2535EA"/>
<stop offset="1" stop-color="#4FBCEB"/>
</linearGradient>
<linearGradient id="paint4_linear_1_1783" x1="56.0859" y1="37.4941" x2="56.0859" y2="40.851" gradientUnits="userSpaceOnUse">
<stop offset="0.25" stop-color="#2535EA"/>
<stop offset="1" stop-color="#4FBCEB"/>
</linearGradient>
<linearGradient id="paint5_linear_1_1783" x1="59.567" y1="43.2324" x2="59.567" y2="44.9634" gradientUnits="userSpaceOnUse">
<stop offset="0.25" stop-color="#2535EA"/>
<stop offset="1" stop-color="#4FBCEB"/>
</linearGradient>
<linearGradient id="paint6_linear_1_1783" x1="32.2951" y1="48.0566" x2="32.2951" y2="49.54" gradientUnits="userSpaceOnUse">
<stop offset="0.25" stop-color="#2535EA"/>
<stop offset="1" stop-color="#4FBCEB"/>
</linearGradient>
<linearGradient id="paint7_linear_1_1783" x1="36.2787" y1="47.6572" x2="36.2787" y2="49.9409" gradientUnits="userSpaceOnUse">
<stop offset="0.25" stop-color="#2535EA"/>
<stop offset="1" stop-color="#4FBCEB"/>
</linearGradient>
<linearGradient id="paint8_linear_1_1783" x1="54.8272" y1="46.3066" x2="54.8272" y2="49.016" gradientUnits="userSpaceOnUse">
<stop offset="0.25" stop-color="#2535EA"/>
<stop offset="1" stop-color="#4FBCEB"/>
</linearGradient>
<linearGradient id="paint9_linear_1_1783" x1="59.7828" y1="41.5996" x2="59.7828" y2="42.5292" gradientUnits="userSpaceOnUse">
<stop offset="0.25" stop-color="#2535EA"/>
<stop offset="1" stop-color="#4FBCEB"/>
</linearGradient>
<linearGradient id="paint10_linear_1_1783" x1="40.6792" y1="48.0449" x2="40.6792" y2="50.1164" gradientUnits="userSpaceOnUse">
<stop offset="0.25" stop-color="#2535EA"/>
<stop offset="1" stop-color="#4FBCEB"/>
</linearGradient>
<linearGradient id="paint11_linear_1_1783" x1="49.6432" y1="39.2363" x2="49.6432" y2="40.1347" gradientUnits="userSpaceOnUse">
<stop offset="0.25" stop-color="#2535EA"/>
<stop offset="1" stop-color="#4FBCEB"/>
</linearGradient>
<linearGradient id="paint12_linear_1_1783" x1="49.9367" y1="37.4258" x2="49.9367" y2="37.6125" gradientUnits="userSpaceOnUse">
<stop offset="0.25" stop-color="#2535EA"/>
<stop offset="1" stop-color="#4FBCEB"/>
</linearGradient>
<linearGradient id="paint13_linear_1_1783" x1="34.5762" y1="48.0449" x2="34.5762" y2="55.452" gradientUnits="userSpaceOnUse">
<stop offset="0.25" stop-color="#2535EA"/>
<stop offset="1" stop-color="#4FBCEB"/>
</linearGradient>
<linearGradient id="paint14_linear_1_1783" x1="51.887" y1="53.1465" x2="51.887" y2="54.8675" gradientUnits="userSpaceOnUse">
<stop offset="0.25" stop-color="#2535EA"/>
<stop offset="1" stop-color="#4FBCEB"/>
</linearGradient>
<linearGradient id="paint15_linear_1_1783" x1="45.4765" y1="37.7832" x2="45.4765" y2="40.0046" gradientUnits="userSpaceOnUse">
<stop offset="0.25" stop-color="#2535EA"/>
<stop offset="1" stop-color="#4FBCEB"/>
</linearGradient>
<linearGradient id="paint16_linear_1_1783" x1="44.8634" y1="53.499" x2="44.8634" y2="55.092" gradientUnits="userSpaceOnUse">
<stop offset="0.25" stop-color="#2535EA"/>
<stop offset="1" stop-color="#4FBCEB"/>
</linearGradient>
<linearGradient id="paint17_linear_1_1783" x1="47.4352" y1="53.3105" x2="47.4352" y2="54.9541" gradientUnits="userSpaceOnUse">
<stop offset="0.25" stop-color="#2535EA"/>
<stop offset="1" stop-color="#4FBCEB"/>
</linearGradient>
<linearGradient id="paint18_linear_1_1783" x1="46.131" y1="53.3594" x2="46.131" y2="55.0176" gradientUnits="userSpaceOnUse">
<stop offset="0.25" stop-color="#2535EA"/>
<stop offset="1" stop-color="#4FBCEB"/>
</linearGradient>
<linearGradient id="paint19_linear_1_1783" x1="50.0077" y1="53.208" x2="50.0077" y2="54.8298" gradientUnits="userSpaceOnUse">
<stop offset="0.25" stop-color="#2535EA"/>
<stop offset="1" stop-color="#4FBCEB"/>
</linearGradient>
<linearGradient id="paint20_linear_1_1783" x1="48.7123" y1="53.2197" x2="48.7123" y2="54.8923" gradientUnits="userSpaceOnUse">
<stop offset="0.25" stop-color="#2535EA"/>
<stop offset="1" stop-color="#4FBCEB"/>
</linearGradient>
<linearGradient id="paint21_linear_1_1783" x1="43.9563" y1="39.2725" x2="43.9563" y2="41.414" gradientUnits="userSpaceOnUse">
<stop offset="0.25" stop-color="#2535EA"/>
<stop offset="1" stop-color="#4FBCEB"/>
</linearGradient>
<linearGradient id="paint22_linear_1_1783" x1="42.3319" y1="40.6953" x2="42.3319" y2="42.1911" gradientUnits="userSpaceOnUse">
<stop offset="0.25" stop-color="#2535EA"/>
<stop offset="1" stop-color="#4FBCEB"/>
</linearGradient>
<linearGradient id="paint23_linear_1_1783" x1="39.7587" y1="42.7197" x2="39.7587" y2="43.9592" gradientUnits="userSpaceOnUse">
<stop offset="0.25" stop-color="#2535EA"/>
<stop offset="1" stop-color="#4FBCEB"/>
</linearGradient>
<linearGradient id="paint24_linear_1_1783" x1="38.3762" y1="43.9023" x2="38.3762" y2="45.093" gradientUnits="userSpaceOnUse">
<stop offset="0.25" stop-color="#2535EA"/>
<stop offset="1" stop-color="#4FBCEB"/>
</linearGradient>
<linearGradient id="paint25_linear_1_1783" x1="40.9978" y1="41.7793" x2="40.9978" y2="42.9432" gradientUnits="userSpaceOnUse">
<stop offset="0.25" stop-color="#2535EA"/>
<stop offset="1" stop-color="#4FBCEB"/>
</linearGradient>
</defs>
</svg>
