<svg width="140" height="140" viewBox="0 0 140 140" fill="none" xmlns="http://www.w3.org/2000/svg">
<g id="Group 37613">
<g id="Ellipse 84" filter="url(#filter0_d_1_1922)">
<ellipse cx="70.347" cy="66.2891" rx="49.5516" ry="49.5" fill="#6ACFE7"/>
</g>
<g id="Group 37612">
<path id="Vector" d="M59.8293 79.6559C59.7963 78.7851 60.0273 78.0517 60.36 77.3457C60.8605 76.2853 61.5783 75.3705 62.3097 74.4667C63.44 73.0685 64.6582 71.7361 65.5107 70.1401C65.8682 69.4671 66.1129 68.7363 66.4291 68.0386C66.4979 67.8875 66.6244 67.7254 66.7674 67.654C67.7546 67.1788 68.3486 66.3601 68.7748 65.3959C69.3633 64.0663 69.6356 62.6434 69.9738 61.2396C70.5705 58.7508 71.1645 56.2592 71.8108 53.7841C72.2123 52.2512 73.0345 51.6551 74.6267 51.6523C75.5919 51.6523 76.5571 51.7512 77.5224 51.7512C78.4408 51.7512 79.3373 51.6001 80.0936 51.004C80.6518 50.5617 80.9955 49.9739 81.2733 49.2871C81.4988 49.6744 81.6968 50.0398 81.9223 50.3859C82.4943 51.2677 83.0745 52.1468 83.6657 53.0176C84.2322 53.8527 84.2955 54.7263 83.8995 55.6356C83.4567 56.652 82.7115 57.4459 81.9195 58.1904C81.2788 58.7892 80.6353 59.3908 79.9478 59.932C78.2979 61.2341 77.1154 62.8851 76.2877 64.7943C75.5782 66.4316 74.9319 68.0935 74.2445 69.739C73.5652 71.3735 72.7952 72.9723 71.5495 74.258C68.9343 76.9583 65.8242 78.7824 62.0705 79.4005C61.339 79.5213 60.5993 79.568 59.8293 79.6532V79.6559ZM77.6709 56.0476C77.0521 56.6026 76.4471 57.0915 75.9082 57.6437C74.5222 59.0667 73.6972 60.8303 72.919 62.6241C72.1738 64.3383 71.4395 66.0607 70.609 67.7337C70.3423 68.2748 70.334 68.599 70.7383 69.0248C71.1645 69.4698 71.522 69.978 71.9483 70.5082C72.2343 69.9478 72.5175 69.4561 72.7457 68.9369C73.568 67.0634 74.3434 65.1707 75.1849 63.3081C75.9219 61.6791 76.8706 60.1875 78.2786 59.0365C78.5316 58.8304 78.8011 58.6409 79.0953 58.4211C78.6361 57.6574 78.1824 56.902 77.6709 56.0476Z" fill="white"/>
<path id="Vector_2" d="M76.1637 73.1075C78.7624 71.9647 81.2923 70.8522 83.8222 69.7424L83.847 69.7863C83.077 70.2561 82.3125 70.734 81.5343 71.1928C79.6643 72.2944 77.7916 73.3877 75.9189 74.481C75.4294 74.7667 75.3964 74.7915 75.1709 75.4425C79.5571 73.4482 83.7782 71.2395 87.9609 68.9512L88.0351 69.0254C87.9939 69.0419 87.9444 69.0501 87.9086 69.0776C83.6352 72.1268 79.3178 75.1156 74.7612 77.7336C72.4733 79.0494 70.1688 80.3488 67.7241 81.357C64.8395 82.5464 61.82 82.975 58.7071 82.7223C57.3266 82.6096 55.9599 82.4311 54.662 81.9091C54.1505 81.7031 53.672 81.4366 53.3227 80.9889C53.0835 80.6839 52.9652 80.3433 53.0037 79.9312C53.056 79.9422 53.1 79.9395 53.133 79.9587C54.607 80.8433 56.2267 81.2498 57.9261 81.2965C60.0711 81.3542 62.1995 81.2114 64.2785 80.6043C66.7974 79.8681 69.0193 78.5934 71.0763 76.9781C73.1855 75.3216 74.4642 73.113 75.5147 70.7203C76.2352 69.0776 76.9749 67.4376 77.7669 65.8278C78.7184 63.8911 80.0961 62.2868 81.7515 60.9078C82.3978 60.3694 83.0138 59.7815 83.594 59.1716C84.5207 58.1992 85.1642 57.0674 85.3209 55.6719C86.0744 56.4603 86.3027 57.386 86.2119 58.4052C86.0992 59.6579 85.4529 60.6468 84.6087 61.5286C83.5967 62.5835 82.4033 63.4076 81.1713 64.1631C79.2958 65.3113 78.0584 66.9239 77.3984 69.0006C76.9859 70.2945 76.5872 71.5911 76.1829 72.885C76.1719 72.9235 76.1747 72.9674 76.1664 73.1075H76.1637Z" fill="white"/>
<path id="Vector_3" d="M58.87 79.6867C57.7975 79.5438 56.7388 79.445 55.6965 79.2527C54.8606 79.0988 54.0438 78.8296 53.2161 78.6236C52.9989 78.5686 52.9301 78.4505 52.8944 78.239C52.6496 76.7611 53.0951 75.4809 54.1153 74.4453C55.0668 73.4783 56.1173 72.6102 57.132 71.7037C58.4052 70.5692 59.5437 69.3412 60.1267 67.6902C60.1652 67.5804 60.3109 67.4815 60.4292 67.4348C61.8234 66.8716 63.2149 66.9788 64.6036 67.465C64.8291 67.5447 65.0518 67.6408 65.2746 67.7342C65.3241 67.7534 65.3653 67.7864 65.423 67.8194C65.0793 69.0253 64.4881 70.0967 63.7208 71.0636C62.8629 72.1432 61.9306 73.1679 61.0672 74.2448C59.4914 76.2171 59.1505 77.0907 58.8672 79.6867H58.87Z" fill="white"/>
<path id="Vector_4" d="M64.5043 52.2409C64.6116 51.7465 64.7381 51.241 64.8261 50.7273C64.9718 49.8757 65.0983 49.0186 65.2166 48.1615C65.4613 46.3979 66.6713 45.7551 68.3872 45.8815C69.3415 45.9501 70.0482 46.4172 70.5074 47.277C71.3654 48.884 72.7541 49.6944 74.5361 49.9252C75.4766 50.046 76.4088 50.1504 77.3438 49.9224C77.5115 49.8812 77.6793 49.8153 77.8333 49.7411C78.4108 49.4554 78.661 48.9857 78.5097 48.3621C78.3365 47.6506 78.012 47.005 77.4895 46.4776C77.0798 46.0655 76.593 46.0023 76.1723 46.3924C75.7928 46.7441 75.4766 47.1753 75.1961 47.6149C74.9266 48.0352 74.7203 48.5022 74.5168 48.9637C74.4233 49.178 74.3106 49.2576 74.0934 49.1862C73.6726 49.0461 73.2519 48.9032 72.8641 48.7741C73.4031 47.8044 73.8981 46.8787 74.4316 45.9776C74.7203 45.4914 75.0228 44.9942 75.4188 44.5986C76.604 43.4174 78.364 43.5465 79.3897 44.8706C80.124 45.8155 80.5859 46.8842 80.6492 48.0929C80.7069 49.2164 80.168 50.0543 79.1312 50.5103C78.4327 50.818 77.693 50.8894 76.9423 50.8619C76.2521 50.8372 75.5618 50.7603 74.8716 50.7658C74.3051 50.7713 73.7304 50.8097 73.1776 50.9278C72.3609 51.1064 71.7862 51.6366 71.4149 52.3838C71.3434 52.5294 71.2829 52.6832 71.2087 52.848C69.0225 52.1091 66.8225 51.5432 64.4961 52.2437L64.5043 52.2409Z" fill="white"/>
<path id="Vector_5" d="M68.8742 62.6494C68.7174 63.1905 68.569 63.7015 68.4177 64.2262C66.0858 63.3444 63.7648 62.7428 61.2926 63.457C60.9846 62.9103 61.2349 62.0395 61.8839 61.7264C62.2441 61.5506 62.6731 61.4517 63.0773 61.4379C64.9528 61.3692 66.7677 61.6824 68.4892 62.4543C68.6074 62.5065 68.7202 62.5725 68.8742 62.6521V62.6494Z" fill="white"/>
<path id="Vector_6" d="M62.0902 60.6941C61.7932 59.7052 62.2964 58.8124 63.3551 58.7053C65.4753 58.491 67.5158 58.8673 69.4875 59.7574C69.372 60.3178 69.262 60.859 69.1465 61.4111C66.8393 60.5623 64.5321 59.9662 62.0874 60.6969L62.0902 60.6941Z" fill="white"/>
<path id="Vector_7" d="M62.8297 57.9388C62.5685 56.8509 63.1075 56.0076 64.2019 55.9279C66.2094 55.7796 68.1536 56.0818 70.0043 56.9031C70.0318 56.9169 70.0565 56.9389 70.0895 56.9636L69.732 58.5843C67.4881 57.7904 65.2304 57.2191 62.8297 57.9388Z" fill="white"/>
<path id="Vector_8" d="M70.8602 53.9796L70.423 55.5894C68.212 54.8449 66.0011 54.2791 63.6719 54.996C63.3144 54.1664 63.8149 53.2297 64.8104 53.0374C65.2888 52.944 65.7921 52.944 66.2816 52.9605C67.849 53.0127 69.367 53.3093 70.8602 53.9796Z" fill="white"/>
<path id="Vector_9" d="M67.8589 65.5471C67.5839 66.0444 67.2512 66.4372 66.7809 66.7092C66.5444 66.8465 66.341 66.8547 66.0797 66.7256C64.5782 65.9894 63.0053 65.646 61.3361 65.9867C60.9456 66.0663 60.5716 66.2174 60.1894 66.3383C59.9639 65.2367 60.5826 64.3632 61.7898 64.3027C63.899 64.1956 65.9285 64.5747 67.8589 65.5471Z" fill="white"/>
</g>
</g>
<defs>
<filter id="filter0_d_1_1922" x="0.79541" y="0.789062" width="139.103" height="139" filterUnits="userSpaceOnUse" color-interpolation-filters="sRGB">
<feFlood flood-opacity="0" result="BackgroundImageFix"/>
<feColorMatrix in="SourceAlpha" type="matrix" values="0 0 0 0 0 0 0 0 0 0 0 0 0 0 0 0 0 0 127 0" result="hardAlpha"/>
<feOffset dy="4"/>
<feGaussianBlur stdDeviation="10"/>
<feComposite in2="hardAlpha" operator="out"/>
<feColorMatrix type="matrix" values="0 0 0 0 0 0 0 0 0 0 0 0 0 0 0 0 0 0 0.08 0"/>
<feBlend mode="normal" in2="BackgroundImageFix" result="effect1_dropShadow_1_1922"/>
<feBlend mode="normal" in="SourceGraphic" in2="effect1_dropShadow_1_1922" result="shape"/>
</filter>
</defs>
</svg>
