<svg xmlns="http://www.w3.org/2000/svg" width="91" height="90" viewBox="0 0 91 90" fill="none">
  <path d="M89.3281 45C89.3281 69.3015 69.6487 89 45.375 89C21.1013 89 1.42188 69.3015 1.42188 45C1.42188 20.6985 21.1013 1 45.375 1C69.6487 1 89.3281 20.6985 89.3281 45Z" fill="white" stroke="url(#paint0_linear_1_1327)" stroke-width="2"/>
  <path d="M57.1692 34.4119C56.2024 31.9288 53.0122 31.6853 51.9005 31.2958C51.7071 31.2471 51.1754 31.0037 51.1271 31.0037C50.9821 30.955 50.4504 31.3932 50.1603 32.0262C49.4353 33.5842 47.8885 34.9962 45.375 35.0449C42.8615 34.9962 41.3147 33.5842 40.5897 32.0262C40.2996 31.3932 39.7679 30.955 39.6229 31.0037C39.5746 31.0037 39.0429 31.1984 38.8495 31.2958C37.7378 31.6853 34.4992 31.8801 33.5808 34.4119C33.0491 35.8239 31.7441 37.6741 30.3906 39.4269C30.7773 40.3033 33.4358 42.7865 34.7409 43.176C35.8527 42.2022 36.8194 40.5955 36.8194 40.5955C37.3511 40.8389 36.6261 42.9326 36.7227 43.9063C36.9644 46.4382 37.8345 47.1198 37.3994 51.2584C37.1094 54.0337 36.2394 56.8577 36.481 57.1011C37.7861 58.5618 41.2664 58.9513 45.375 59C49.4836 58.9513 52.9639 58.5618 54.269 57.1011C54.5106 56.809 53.6406 54.0337 53.3506 51.2584C52.9155 47.1198 53.7856 46.4382 54.0273 43.9063C54.1239 42.9326 53.3989 40.8389 53.9306 40.5955C53.9306 40.5955 54.8973 42.1535 56.0091 43.176C57.3625 42.7378 59.9727 40.3033 60.3594 39.4269C59.0059 37.6741 57.7009 35.8239 57.1692 34.4119Z" fill="url(#paint1_linear_1_1327)"/>
  <defs>
    <linearGradient id="paint0_linear_1_1327" x1="69.7645" y1="-7.48552e-07" x2="20.935" y2="89.9391" gradientUnits="userSpaceOnUse">
      <stop stop-color="#62E660"/>
      <stop offset="1" stop-color="#36FFF3"/>
    </linearGradient>
    <linearGradient id="paint1_linear_1_1327" x1="45.375" y1="31" x2="45.375" y2="59" gradientUnits="userSpaceOnUse">
      <stop stop-color="#3BFBDF"/>
      <stop offset="1" stop-color="#5DE870"/>
    </linearGradient>
  </defs>
</svg>